<svg width="488" height="98" viewBox="0 0 488 98" fill="none" xmlns="http://www.w3.org/2000/svg">
<path d="M54.8281 62.7732H60.2188V63.9998H53.3203V52.6248H54.8281V62.7732ZM61.3203 59.6951C61.3203 58.8669 61.4818 58.1222 61.8047 57.4607C62.1328 56.7992 62.5859 56.2888 63.1641 55.9294C63.7474 55.5701 64.4115 55.3904 65.1562 55.3904C66.3073 55.3904 67.237 55.7888 67.9453 56.5857C68.6589 57.3826 69.0156 58.4425 69.0156 59.7654V59.8669C69.0156 60.6899 68.8568 61.4294 68.5391 62.0857C68.2266 62.7367 67.776 63.2445 67.1875 63.6091C66.6042 63.9737 65.9323 64.156 65.1719 64.156C64.026 64.156 63.0964 63.7576 62.3828 62.9607C61.6745 62.1638 61.3203 61.1091 61.3203 59.7966V59.6951ZM62.7734 59.8669C62.7734 60.8044 62.9896 61.557 63.4219 62.1248C63.8594 62.6925 64.4427 62.9763 65.1719 62.9763C65.9062 62.9763 66.4896 62.6899 66.9219 62.1169C67.3542 61.5388 67.5703 60.7315 67.5703 59.6951C67.5703 58.768 67.349 58.018 66.9062 57.4451C66.4688 56.8669 65.8854 56.5779 65.1562 56.5779C64.4427 56.5779 63.8672 56.8617 63.4297 57.4294C62.9922 57.9972 62.7734 58.8097 62.7734 59.8669ZM74.9141 56.8435C74.6953 56.807 74.4583 56.7888 74.2031 56.7888C73.2552 56.7888 72.612 57.1925 72.2734 57.9998V63.9998H70.8281V55.5466H72.2344L72.2578 56.5232C72.7318 55.768 73.4036 55.3904 74.2734 55.3904C74.5547 55.3904 74.7682 55.4268 74.9141 55.4998V56.8435ZM79.6016 64.156C78.4557 64.156 77.5234 63.781 76.8047 63.031C76.0859 62.2758 75.7266 61.268 75.7266 60.0076V59.7419C75.7266 58.9034 75.8854 58.156 76.2031 57.4998C76.526 56.8383 76.974 56.3227 77.5469 55.9529C78.125 55.5779 78.75 55.3904 79.4219 55.3904C80.5208 55.3904 81.375 55.7524 81.9844 56.4763C82.5938 57.2003 82.8984 58.2367 82.8984 59.5857V60.1873H77.1719C77.1927 61.0206 77.4349 61.6951 77.8984 62.2107C78.3672 62.7211 78.9609 62.9763 79.6797 62.9763C80.1901 62.9763 80.6224 62.8722 80.9766 62.6638C81.3307 62.4555 81.6406 62.1794 81.9062 61.8357L82.7891 62.5232C82.0807 63.6117 81.0182 64.156 79.6016 64.156ZM79.4219 56.5779C78.8385 56.5779 78.349 56.7914 77.9531 57.2185C77.5573 57.6404 77.3125 58.2341 77.2188 58.9998H81.4531V58.8904C81.4115 58.156 81.2135 57.5883 80.8594 57.1873C80.5052 56.781 80.026 56.5779 79.4219 56.5779ZM85.9375 55.5466L85.9766 56.4841C86.5964 55.755 87.4323 55.3904 88.4844 55.3904C89.6667 55.3904 90.4714 55.8435 90.8984 56.7498C91.1797 56.3435 91.5443 56.0154 91.9922 55.7654C92.4453 55.5154 92.9792 55.3904 93.5938 55.3904C95.4479 55.3904 96.3906 56.3722 96.4219 58.3357V63.9998H94.9766V58.4216C94.9766 57.8175 94.8385 57.3669 94.5625 57.0701C94.2865 56.768 93.8229 56.6169 93.1719 56.6169C92.6354 56.6169 92.1901 56.7784 91.8359 57.1013C91.4818 57.419 91.276 57.8487 91.2188 58.3904V63.9998H89.7656V58.4607C89.7656 57.2315 89.1641 56.6169 87.9609 56.6169C87.013 56.6169 86.3646 57.0206 86.0156 57.8279V63.9998H84.5703V55.5466H85.9375ZM104.148 63.9998H102.703V55.5466H104.148V63.9998ZM102.586 53.3044C102.586 53.0701 102.656 52.8722 102.797 52.7107C102.943 52.5492 103.156 52.4685 103.438 52.4685C103.719 52.4685 103.932 52.5492 104.078 52.7107C104.224 52.8722 104.297 53.0701 104.297 53.3044C104.297 53.5388 104.224 53.7341 104.078 53.8904C103.932 54.0466 103.719 54.1248 103.438 54.1248C103.156 54.1248 102.943 54.0466 102.797 53.8904C102.656 53.7341 102.586 53.5388 102.586 53.3044ZM113.609 59.8669C113.609 61.1534 113.315 62.1899 112.727 62.9763C112.138 63.7628 111.341 64.156 110.336 64.156C109.31 64.156 108.503 63.8305 107.914 63.1794V67.2498H106.469V55.5466H107.789L107.859 56.4841C108.448 55.755 109.266 55.3904 110.312 55.3904C111.328 55.3904 112.13 55.7732 112.719 56.5388C113.312 57.3044 113.609 58.3695 113.609 59.7341V59.8669ZM112.164 59.7029C112.164 58.7498 111.961 57.9972 111.555 57.4451C111.148 56.893 110.591 56.6169 109.883 56.6169C109.008 56.6169 108.352 57.005 107.914 57.781V61.8201C108.346 62.5909 109.008 62.9763 109.898 62.9763C110.591 62.9763 111.141 62.7029 111.547 62.156C111.958 61.6039 112.164 60.7862 112.164 59.7029ZM120.375 61.7576C120.375 61.3669 120.227 61.0649 119.93 60.8513C119.638 60.6326 119.125 60.4451 118.391 60.2888C117.661 60.1326 117.081 59.9451 116.648 59.7263C116.221 59.5076 115.904 59.2472 115.695 58.9451C115.492 58.643 115.391 58.2836 115.391 57.8669C115.391 57.1742 115.682 56.5883 116.266 56.1091C116.854 55.63 117.604 55.3904 118.516 55.3904C119.474 55.3904 120.25 55.6378 120.844 56.1326C121.443 56.6274 121.742 57.2602 121.742 58.031H120.289C120.289 57.6352 120.12 57.294 119.781 57.0076C119.448 56.7211 119.026 56.5779 118.516 56.5779C117.99 56.5779 117.578 56.6925 117.281 56.9216C116.984 57.1508 116.836 57.4503 116.836 57.8201C116.836 58.169 116.974 58.432 117.25 58.6091C117.526 58.7862 118.023 58.9555 118.742 59.1169C119.466 59.2784 120.052 59.4711 120.5 59.6951C120.948 59.919 121.279 60.1899 121.492 60.5076C121.711 60.8201 121.82 61.2029 121.82 61.656C121.82 62.4112 121.518 63.018 120.914 63.4763C120.31 63.9294 119.526 64.156 118.562 64.156C117.885 64.156 117.286 64.0362 116.766 63.7966C116.245 63.557 115.836 63.2237 115.539 62.7966C115.247 62.3643 115.102 61.8982 115.102 61.3982H116.547C116.573 61.8826 116.766 62.268 117.125 62.5544C117.49 62.8357 117.969 62.9763 118.562 62.9763C119.109 62.9763 119.547 62.8669 119.875 62.6482C120.208 62.4242 120.375 62.1274 120.375 61.7576ZM128.922 63.1638C128.359 63.8253 127.534 64.156 126.445 64.156C125.544 64.156 124.857 63.8956 124.383 63.3748C123.914 62.8487 123.677 62.0727 123.672 61.0466V55.5466H125.117V61.0076C125.117 62.2888 125.638 62.9294 126.68 62.9294C127.784 62.9294 128.518 62.518 128.883 61.6951V55.5466H130.328V63.9998H128.953L128.922 63.1638ZM133.891 55.5466L133.93 56.4841C134.549 55.755 135.385 55.3904 136.438 55.3904C137.62 55.3904 138.424 55.8435 138.852 56.7498C139.133 56.3435 139.497 56.0154 139.945 55.7654C140.398 55.5154 140.932 55.3904 141.547 55.3904C143.401 55.3904 144.344 56.3722 144.375 58.3357V63.9998H142.93V58.4216C142.93 57.8175 142.792 57.3669 142.516 57.0701C142.24 56.768 141.776 56.6169 141.125 56.6169C140.589 56.6169 140.143 56.7784 139.789 57.1013C139.435 57.419 139.229 57.8487 139.172 58.3904V63.9998H137.719V58.4607C137.719 57.2315 137.117 56.6169 135.914 56.6169C134.966 56.6169 134.318 57.0206 133.969 57.8279V63.9998H132.523V55.5466H133.891ZM150.18 59.7029C150.18 58.406 150.487 57.3643 151.102 56.5779C151.716 55.7862 152.521 55.3904 153.516 55.3904C154.505 55.3904 155.289 55.7289 155.867 56.406V51.9998H157.312V63.9998H155.984L155.914 63.0935C155.336 63.8018 154.531 64.156 153.5 64.156C152.521 64.156 151.721 63.755 151.102 62.9529C150.487 62.1508 150.18 61.1039 150.18 59.8123V59.7029ZM151.625 59.8669C151.625 60.8253 151.823 61.5753 152.219 62.1169C152.615 62.6586 153.161 62.9294 153.859 62.9294C154.776 62.9294 155.445 62.518 155.867 61.6951V57.8123C155.435 57.0154 154.771 56.6169 153.875 56.6169C153.167 56.6169 152.615 56.8904 152.219 57.4373C151.823 57.9841 151.625 58.794 151.625 59.8669ZM159.18 59.6951C159.18 58.8669 159.341 58.1222 159.664 57.4607C159.992 56.7992 160.445 56.2888 161.023 55.9294C161.607 55.5701 162.271 55.3904 163.016 55.3904C164.167 55.3904 165.096 55.7888 165.805 56.5857C166.518 57.3826 166.875 58.4425 166.875 59.7654V59.8669C166.875 60.6899 166.716 61.4294 166.398 62.0857C166.086 62.7367 165.635 63.2445 165.047 63.6091C164.464 63.9737 163.792 64.156 163.031 64.156C161.885 64.156 160.956 63.7576 160.242 62.9607C159.534 62.1638 159.18 61.1091 159.18 59.7966V59.6951ZM160.633 59.8669C160.633 60.8044 160.849 61.557 161.281 62.1248C161.719 62.6925 162.302 62.9763 163.031 62.9763C163.766 62.9763 164.349 62.6899 164.781 62.1169C165.214 61.5388 165.43 60.7315 165.43 59.6951C165.43 58.768 165.208 58.018 164.766 57.4451C164.328 56.8669 163.745 56.5779 163.016 56.5779C162.302 56.5779 161.727 56.8617 161.289 57.4294C160.852 57.9972 160.633 58.8097 160.633 59.8669ZM170.258 63.9998H168.812V51.9998H170.258V63.9998ZM172.195 59.6951C172.195 58.8669 172.357 58.1222 172.68 57.4607C173.008 56.7992 173.461 56.2888 174.039 55.9294C174.622 55.5701 175.286 55.3904 176.031 55.3904C177.182 55.3904 178.112 55.7888 178.82 56.5857C179.534 57.3826 179.891 58.4425 179.891 59.7654V59.8669C179.891 60.6899 179.732 61.4294 179.414 62.0857C179.102 62.7367 178.651 63.2445 178.062 63.6091C177.479 63.9737 176.807 64.156 176.047 64.156C174.901 64.156 173.971 63.7576 173.258 62.9607C172.549 62.1638 172.195 61.1091 172.195 59.7966V59.6951ZM173.648 59.8669C173.648 60.8044 173.865 61.557 174.297 62.1248C174.734 62.6925 175.318 62.9763 176.047 62.9763C176.781 62.9763 177.365 62.6899 177.797 62.1169C178.229 61.5388 178.445 60.7315 178.445 59.6951C178.445 58.768 178.224 58.018 177.781 57.4451C177.344 56.8669 176.76 56.5779 176.031 56.5779C175.318 56.5779 174.742 56.8617 174.305 57.4294C173.867 57.9972 173.648 58.8097 173.648 59.8669ZM185.789 56.8435C185.57 56.807 185.333 56.7888 185.078 56.7888C184.13 56.7888 183.487 57.1925 183.148 57.9998V63.9998H181.703V55.5466H183.109L183.133 56.5232C183.607 55.768 184.279 55.3904 185.148 55.3904C185.43 55.3904 185.643 55.4268 185.789 55.4998V56.8435ZM196.016 61.7576C196.016 61.3669 195.867 61.0649 195.57 60.8513C195.279 60.6326 194.766 60.4451 194.031 60.2888C193.302 60.1326 192.721 59.9451 192.289 59.7263C191.862 59.5076 191.544 59.2472 191.336 58.9451C191.133 58.643 191.031 58.2836 191.031 57.8669C191.031 57.1742 191.323 56.5883 191.906 56.1091C192.495 55.63 193.245 55.3904 194.156 55.3904C195.115 55.3904 195.891 55.6378 196.484 56.1326C197.083 56.6274 197.383 57.2602 197.383 58.031H195.93C195.93 57.6352 195.76 57.294 195.422 57.0076C195.089 56.7211 194.667 56.5779 194.156 56.5779C193.63 56.5779 193.219 56.6925 192.922 56.9216C192.625 57.1508 192.477 57.4503 192.477 57.8201C192.477 58.169 192.615 58.432 192.891 58.6091C193.167 58.7862 193.664 58.9555 194.383 59.1169C195.107 59.2784 195.693 59.4711 196.141 59.6951C196.589 59.919 196.919 60.1899 197.133 60.5076C197.352 60.8201 197.461 61.2029 197.461 61.656C197.461 62.4112 197.159 63.018 196.555 63.4763C195.951 63.9294 195.167 64.156 194.203 64.156C193.526 64.156 192.927 64.0362 192.406 63.7966C191.885 63.557 191.477 63.2237 191.18 62.7966C190.888 62.3643 190.742 61.8982 190.742 61.3982H192.188C192.214 61.8826 192.406 62.268 192.766 62.5544C193.13 62.8357 193.609 62.9763 194.203 62.9763C194.75 62.9763 195.188 62.8669 195.516 62.6482C195.849 62.4242 196.016 62.1274 196.016 61.7576ZM200.914 63.9998H199.469V55.5466H200.914V63.9998ZM199.352 53.3044C199.352 53.0701 199.422 52.8722 199.562 52.7107C199.708 52.5492 199.922 52.4685 200.203 52.4685C200.484 52.4685 200.698 52.5492 200.844 52.7107C200.99 52.8722 201.062 53.0701 201.062 53.3044C201.062 53.5388 200.99 53.7341 200.844 53.8904C200.698 54.0466 200.484 54.1248 200.203 54.1248C199.922 54.1248 199.708 54.0466 199.562 53.8904C199.422 53.7341 199.352 53.5388 199.352 53.3044ZM205.195 53.4998V55.5466H206.773V56.6638H205.195V61.906C205.195 62.2445 205.266 62.4998 205.406 62.6716C205.547 62.8383 205.786 62.9216 206.125 62.9216C206.292 62.9216 206.521 62.8904 206.812 62.8279V63.9998C206.432 64.1039 206.062 64.156 205.703 64.156C205.057 64.156 204.57 63.9607 204.242 63.5701C203.914 63.1794 203.75 62.6248 203.75 61.906V56.6638H202.211V55.5466H203.75V53.4998H205.195ZM217.656 63.9998C217.573 63.8331 217.505 63.5362 217.453 63.1091C216.781 63.807 215.979 64.156 215.047 64.156C214.214 64.156 213.529 63.9216 212.992 63.4529C212.461 62.9789 212.195 62.38 212.195 61.656C212.195 60.7758 212.529 60.0935 213.195 59.6091C213.867 59.1195 214.81 58.8748 216.023 58.8748H217.43V58.2107C217.43 57.7055 217.279 57.3044 216.977 57.0076C216.674 56.7055 216.229 56.5544 215.641 56.5544C215.125 56.5544 214.693 56.6847 214.344 56.9451C213.995 57.2055 213.82 57.5206 213.82 57.8904H212.367C212.367 57.4685 212.516 57.0623 212.812 56.6716C213.115 56.2758 213.521 55.9633 214.031 55.7341C214.547 55.505 215.112 55.3904 215.727 55.3904C216.701 55.3904 217.464 55.6352 218.016 56.1248C218.568 56.6091 218.854 57.2784 218.875 58.1326V62.0232C218.875 62.7992 218.974 63.4164 219.172 63.8748V63.9998H217.656ZM215.258 62.8982C215.711 62.8982 216.141 62.781 216.547 62.5466C216.953 62.3123 217.247 62.0076 217.43 61.6326V59.8982H216.297C214.526 59.8982 213.641 60.4164 213.641 61.4529C213.641 61.906 213.792 62.2602 214.094 62.5154C214.396 62.7706 214.784 62.8982 215.258 62.8982ZM222.5 55.5466L222.539 56.4841C223.159 55.755 223.995 55.3904 225.047 55.3904C226.229 55.3904 227.034 55.8435 227.461 56.7498C227.742 56.3435 228.107 56.0154 228.555 55.7654C229.008 55.5154 229.542 55.3904 230.156 55.3904C232.01 55.3904 232.953 56.3722 232.984 58.3357V63.9998H231.539V58.4216C231.539 57.8175 231.401 57.3669 231.125 57.0701C230.849 56.768 230.385 56.6169 229.734 56.6169C229.198 56.6169 228.753 56.7784 228.398 57.1013C228.044 57.419 227.839 57.8487 227.781 58.3904V63.9998H226.328V58.4607C226.328 57.2315 225.727 56.6169 224.523 56.6169C223.576 56.6169 222.927 57.0206 222.578 57.8279V63.9998H221.133V55.5466H222.5ZM238.68 64.156C237.534 64.156 236.602 63.781 235.883 63.031C235.164 62.2758 234.805 61.268 234.805 60.0076V59.7419C234.805 58.9034 234.964 58.156 235.281 57.4998C235.604 56.8383 236.052 56.3227 236.625 55.9529C237.203 55.5779 237.828 55.3904 238.5 55.3904C239.599 55.3904 240.453 55.7524 241.062 56.4763C241.672 57.2003 241.977 58.2367 241.977 59.5857V60.1873H236.25C236.271 61.0206 236.513 61.6951 236.977 62.2107C237.445 62.7211 238.039 62.9763 238.758 62.9763C239.268 62.9763 239.701 62.8722 240.055 62.6638C240.409 62.4555 240.719 62.1794 240.984 61.8357L241.867 62.5232C241.159 63.6117 240.096 64.156 238.68 64.156ZM238.5 56.5779C237.917 56.5779 237.427 56.7914 237.031 57.2185C236.635 57.6404 236.391 58.2341 236.297 58.9998H240.531V58.8904C240.49 58.156 240.292 57.5883 239.938 57.1873C239.583 56.781 239.104 56.5779 238.5 56.5779ZM245.617 53.4998V55.5466H247.195V56.6638H245.617V61.906C245.617 62.2445 245.688 62.4998 245.828 62.6716C245.969 62.8383 246.208 62.9216 246.547 62.9216C246.714 62.9216 246.943 62.8904 247.234 62.8279V63.9998C246.854 64.1039 246.484 64.156 246.125 64.156C245.479 64.156 244.992 63.9607 244.664 63.5701C244.336 63.1794 244.172 62.6248 244.172 61.906V56.6638H242.633V55.5466H244.172V53.4998H245.617ZM248.844 66.2654L248.023 65.7029C248.513 65.0206 248.768 64.3175 248.789 63.5935V62.2888H250.203V63.4216C250.203 63.9477 250.073 64.4737 249.812 64.9998C249.557 65.5258 249.234 65.9477 248.844 66.2654ZM259.391 62.9763C259.906 62.9763 260.357 62.8201 260.742 62.5076C261.128 62.1951 261.341 61.8044 261.383 61.3357H262.75C262.724 61.8201 262.557 62.281 262.25 62.7185C261.943 63.156 261.531 63.505 261.016 63.7654C260.505 64.0258 259.964 64.156 259.391 64.156C258.24 64.156 257.323 63.7732 256.641 63.0076C255.964 62.2367 255.625 61.1847 255.625 59.8513V59.6091C255.625 58.7862 255.776 58.0544 256.078 57.4138C256.38 56.7732 256.812 56.2758 257.375 55.9216C257.943 55.5675 258.612 55.3904 259.383 55.3904C260.331 55.3904 261.117 55.6742 261.742 56.2419C262.372 56.8097 262.708 57.5466 262.75 58.4529H261.383C261.341 57.906 261.133 57.4581 260.758 57.1091C260.388 56.755 259.93 56.5779 259.383 56.5779C258.648 56.5779 258.078 56.8435 257.672 57.3748C257.271 57.9008 257.07 58.6638 257.07 59.6638V59.9373C257.07 60.9112 257.271 61.6612 257.672 62.1873C258.073 62.7133 258.646 62.9763 259.391 62.9763ZM263.992 59.6951C263.992 58.8669 264.154 58.1222 264.477 57.4607C264.805 56.7992 265.258 56.2888 265.836 55.9294C266.419 55.5701 267.083 55.3904 267.828 55.3904C268.979 55.3904 269.909 55.7888 270.617 56.5857C271.331 57.3826 271.688 58.4425 271.688 59.7654V59.8669C271.688 60.6899 271.529 61.4294 271.211 62.0857C270.898 62.7367 270.448 63.2445 269.859 63.6091C269.276 63.9737 268.604 64.156 267.844 64.156C266.698 64.156 265.768 63.7576 265.055 62.9607C264.346 62.1638 263.992 61.1091 263.992 59.7966V59.6951ZM265.445 59.8669C265.445 60.8044 265.661 61.557 266.094 62.1248C266.531 62.6925 267.115 62.9763 267.844 62.9763C268.578 62.9763 269.161 62.6899 269.594 62.1169C270.026 61.5388 270.242 60.7315 270.242 59.6951C270.242 58.768 270.021 58.018 269.578 57.4451C269.141 56.8669 268.557 56.5779 267.828 56.5779C267.115 56.5779 266.539 56.8617 266.102 57.4294C265.664 57.9972 265.445 58.8097 265.445 59.8669ZM274.867 55.5466L274.914 56.6091C275.56 55.7966 276.404 55.3904 277.445 55.3904C279.232 55.3904 280.133 56.3982 280.148 58.4138V63.9998H278.703V58.406C278.698 57.7966 278.557 57.3461 278.281 57.0544C278.01 56.7628 277.586 56.6169 277.008 56.6169C276.539 56.6169 276.128 56.7419 275.773 56.9919C275.419 57.2419 275.143 57.5701 274.945 57.9763V63.9998H273.5V55.5466H274.867ZM287.25 61.7576C287.25 61.3669 287.102 61.0649 286.805 60.8513C286.513 60.6326 286 60.4451 285.266 60.2888C284.536 60.1326 283.956 59.9451 283.523 59.7263C283.096 59.5076 282.779 59.2472 282.57 58.9451C282.367 58.643 282.266 58.2836 282.266 57.8669C282.266 57.1742 282.557 56.5883 283.141 56.1091C283.729 55.63 284.479 55.3904 285.391 55.3904C286.349 55.3904 287.125 55.6378 287.719 56.1326C288.318 56.6274 288.617 57.2602 288.617 58.031H287.164C287.164 57.6352 286.995 57.294 286.656 57.0076C286.323 56.7211 285.901 56.5779 285.391 56.5779C284.865 56.5779 284.453 56.6925 284.156 56.9216C283.859 57.1508 283.711 57.4503 283.711 57.8201C283.711 58.169 283.849 58.432 284.125 58.6091C284.401 58.7862 284.898 58.9555 285.617 59.1169C286.341 59.2784 286.927 59.4711 287.375 59.6951C287.823 59.919 288.154 60.1899 288.367 60.5076C288.586 60.8201 288.695 61.2029 288.695 61.656C288.695 62.4112 288.393 63.018 287.789 63.4763C287.185 63.9294 286.401 64.156 285.438 64.156C284.76 64.156 284.161 64.0362 283.641 63.7966C283.12 63.557 282.711 63.2237 282.414 62.7966C282.122 62.3643 281.977 61.8982 281.977 61.3982H283.422C283.448 61.8826 283.641 62.268 284 62.5544C284.365 62.8357 284.844 62.9763 285.438 62.9763C285.984 62.9763 286.422 62.8669 286.75 62.6482C287.083 62.4242 287.25 62.1274 287.25 61.7576ZM294.086 64.156C292.94 64.156 292.008 63.781 291.289 63.031C290.57 62.2758 290.211 61.268 290.211 60.0076V59.7419C290.211 58.9034 290.37 58.156 290.688 57.4998C291.01 56.8383 291.458 56.3227 292.031 55.9529C292.609 55.5779 293.234 55.3904 293.906 55.3904C295.005 55.3904 295.859 55.7524 296.469 56.4763C297.078 57.2003 297.383 58.2367 297.383 59.5857V60.1873H291.656C291.677 61.0206 291.919 61.6951 292.383 62.2107C292.852 62.7211 293.445 62.9763 294.164 62.9763C294.674 62.9763 295.107 62.8722 295.461 62.6638C295.815 62.4555 296.125 62.1794 296.391 61.8357L297.273 62.5232C296.565 63.6117 295.503 64.156 294.086 64.156ZM293.906 56.5779C293.323 56.5779 292.833 56.7914 292.438 57.2185C292.042 57.6404 291.797 58.2341 291.703 58.9998H295.938V58.8904C295.896 58.156 295.698 57.5883 295.344 57.1873C294.99 56.781 294.51 56.5779 293.906 56.5779ZM302.453 62.9763C302.969 62.9763 303.419 62.8201 303.805 62.5076C304.19 62.1951 304.404 61.8044 304.445 61.3357H305.812C305.786 61.8201 305.62 62.281 305.312 62.7185C305.005 63.156 304.594 63.505 304.078 63.7654C303.568 64.0258 303.026 64.156 302.453 64.156C301.302 64.156 300.385 63.7732 299.703 63.0076C299.026 62.2367 298.688 61.1847 298.688 59.8513V59.6091C298.688 58.7862 298.839 58.0544 299.141 57.4138C299.443 56.7732 299.875 56.2758 300.438 55.9216C301.005 55.5675 301.674 55.3904 302.445 55.3904C303.393 55.3904 304.18 55.6742 304.805 56.2419C305.435 56.8097 305.771 57.5466 305.812 58.4529H304.445C304.404 57.906 304.195 57.4581 303.82 57.1091C303.451 56.755 302.992 56.5779 302.445 56.5779C301.711 56.5779 301.141 56.8435 300.734 57.3748C300.333 57.9008 300.133 58.6638 300.133 59.6638V59.9373C300.133 60.9112 300.333 61.6612 300.734 62.1873C301.135 62.7133 301.708 62.9763 302.453 62.9763ZM309.398 53.4998V55.5466H310.977V56.6638H309.398V61.906C309.398 62.2445 309.469 62.4998 309.609 62.6716C309.75 62.8383 309.99 62.9216 310.328 62.9216C310.495 62.9216 310.724 62.8904 311.016 62.8279V63.9998C310.635 64.1039 310.266 64.156 309.906 64.156C309.26 64.156 308.773 63.9607 308.445 63.5701C308.117 63.1794 307.953 62.6248 307.953 61.906V56.6638H306.414V55.5466H307.953V53.4998H309.398ZM316.18 64.156C315.034 64.156 314.102 63.781 313.383 63.031C312.664 62.2758 312.305 61.268 312.305 60.0076V59.7419C312.305 58.9034 312.464 58.156 312.781 57.4998C313.104 56.8383 313.552 56.3227 314.125 55.9529C314.703 55.5779 315.328 55.3904 316 55.3904C317.099 55.3904 317.953 55.7524 318.562 56.4763C319.172 57.2003 319.477 58.2367 319.477 59.5857V60.1873H313.75C313.771 61.0206 314.013 61.6951 314.477 62.2107C314.945 62.7211 315.539 62.9763 316.258 62.9763C316.768 62.9763 317.201 62.8722 317.555 62.6638C317.909 62.4555 318.219 62.1794 318.484 61.8357L319.367 62.5232C318.659 63.6117 317.596 64.156 316.18 64.156ZM316 56.5779C315.417 56.5779 314.927 56.7914 314.531 57.2185C314.135 57.6404 313.891 58.2341 313.797 58.9998H318.031V58.8904C317.99 58.156 317.792 57.5883 317.438 57.1873C317.083 56.781 316.604 56.5779 316 56.5779ZM323.117 53.4998V55.5466H324.695V56.6638H323.117V61.906C323.117 62.2445 323.188 62.4998 323.328 62.6716C323.469 62.8383 323.708 62.9216 324.047 62.9216C324.214 62.9216 324.443 62.8904 324.734 62.8279V63.9998C324.354 64.1039 323.984 64.156 323.625 64.156C322.979 64.156 322.492 63.9607 322.164 63.5701C321.836 63.1794 321.672 62.6248 321.672 61.906V56.6638H320.133V55.5466H321.672V53.4998H323.117ZM331.609 63.1638C331.047 63.8253 330.221 64.156 329.133 64.156C328.232 64.156 327.544 63.8956 327.07 63.3748C326.602 62.8487 326.365 62.0727 326.359 61.0466V55.5466H327.805V61.0076C327.805 62.2888 328.326 62.9294 329.367 62.9294C330.471 62.9294 331.206 62.518 331.57 61.6951V55.5466H333.016V63.9998H331.641L331.609 63.1638ZM339.305 56.8435C339.086 56.807 338.849 56.7888 338.594 56.7888C337.646 56.7888 337.003 57.1925 336.664 57.9998V63.9998H335.219V55.5466H336.625L336.648 56.5232C337.122 55.768 337.794 55.3904 338.664 55.3904C338.945 55.3904 339.159 55.4268 339.305 55.4998V56.8435ZM349.828 63.9998C349.745 63.8331 349.677 63.5362 349.625 63.1091C348.953 63.807 348.151 64.156 347.219 64.156C346.385 64.156 345.701 63.9216 345.164 63.4529C344.633 62.9789 344.367 62.38 344.367 61.656C344.367 60.7758 344.701 60.0935 345.367 59.6091C346.039 59.1195 346.982 58.8748 348.195 58.8748H349.602V58.2107C349.602 57.7055 349.451 57.3044 349.148 57.0076C348.846 56.7055 348.401 56.5544 347.812 56.5544C347.297 56.5544 346.865 56.6847 346.516 56.9451C346.167 57.2055 345.992 57.5206 345.992 57.8904H344.539C344.539 57.4685 344.688 57.0623 344.984 56.6716C345.286 56.2758 345.693 55.9633 346.203 55.7341C346.719 55.505 347.284 55.3904 347.898 55.3904C348.872 55.3904 349.635 55.6352 350.188 56.1248C350.74 56.6091 351.026 57.2784 351.047 58.1326V62.0232C351.047 62.7992 351.146 63.4164 351.344 63.8748V63.9998H349.828ZM347.43 62.8982C347.883 62.8982 348.312 62.781 348.719 62.5466C349.125 62.3123 349.419 62.0076 349.602 61.6326V59.8982H348.469C346.698 59.8982 345.812 60.4164 345.812 61.4529C345.812 61.906 345.964 62.2602 346.266 62.5154C346.568 62.7706 346.956 62.8982 347.43 62.8982ZM352.961 59.7029C352.961 58.406 353.268 57.3643 353.883 56.5779C354.497 55.7862 355.302 55.3904 356.297 55.3904C357.286 55.3904 358.07 55.7289 358.648 56.406V51.9998H360.094V63.9998H358.766L358.695 63.0935C358.117 63.8018 357.312 64.156 356.281 64.156C355.302 64.156 354.503 63.755 353.883 62.9529C353.268 62.1508 352.961 61.1039 352.961 59.8123V59.7029ZM354.406 59.8669C354.406 60.8253 354.604 61.5753 355 62.1169C355.396 62.6586 355.943 62.9294 356.641 62.9294C357.557 62.9294 358.227 62.518 358.648 61.6951V57.8123C358.216 57.0154 357.552 56.6169 356.656 56.6169C355.948 56.6169 355.396 56.8904 355 57.4373C354.604 57.9841 354.406 58.794 354.406 59.8669ZM363.914 63.9998H362.469V55.5466H363.914V63.9998ZM362.352 53.3044C362.352 53.0701 362.422 52.8722 362.562 52.7107C362.708 52.5492 362.922 52.4685 363.203 52.4685C363.484 52.4685 363.698 52.5492 363.844 52.7107C363.99 52.8722 364.062 53.0701 364.062 53.3044C364.062 53.5388 363.99 53.7341 363.844 53.8904C363.698 54.0466 363.484 54.1248 363.203 54.1248C362.922 54.1248 362.708 54.0466 362.562 53.8904C362.422 53.7341 362.352 53.5388 362.352 53.3044ZM373.375 59.8669C373.375 61.1534 373.081 62.1899 372.492 62.9763C371.904 63.7628 371.107 64.156 370.102 64.156C369.076 64.156 368.268 63.8305 367.68 63.1794V67.2498H366.234V55.5466H367.555L367.625 56.4841C368.214 55.755 369.031 55.3904 370.078 55.3904C371.094 55.3904 371.896 55.7732 372.484 56.5388C373.078 57.3044 373.375 58.3695 373.375 59.7341V59.8669ZM371.93 59.7029C371.93 58.7498 371.727 57.9972 371.32 57.4451C370.914 56.893 370.357 56.6169 369.648 56.6169C368.773 56.6169 368.117 57.005 367.68 57.781V61.8201C368.112 62.5909 368.773 62.9763 369.664 62.9763C370.357 62.9763 370.906 62.7029 371.312 62.156C371.724 61.6039 371.93 60.7862 371.93 59.7029ZM376.789 63.9998H375.344V55.5466H376.789V63.9998ZM375.227 53.3044C375.227 53.0701 375.297 52.8722 375.438 52.7107C375.583 52.5492 375.797 52.4685 376.078 52.4685C376.359 52.4685 376.573 52.5492 376.719 52.7107C376.865 52.8722 376.938 53.0701 376.938 53.3044C376.938 53.5388 376.865 53.7341 376.719 53.8904C376.573 54.0466 376.359 54.1248 376.078 54.1248C375.797 54.1248 375.583 54.0466 375.438 53.8904C375.297 53.7341 375.227 53.5388 375.227 53.3044ZM384.031 61.7576C384.031 61.3669 383.883 61.0649 383.586 60.8513C383.294 60.6326 382.781 60.4451 382.047 60.2888C381.318 60.1326 380.737 59.9451 380.305 59.7263C379.878 59.5076 379.56 59.2472 379.352 58.9451C379.148 58.643 379.047 58.2836 379.047 57.8669C379.047 57.1742 379.339 56.5883 379.922 56.1091C380.51 55.63 381.26 55.3904 382.172 55.3904C383.13 55.3904 383.906 55.6378 384.5 56.1326C385.099 56.6274 385.398 57.2602 385.398 58.031H383.945C383.945 57.6352 383.776 57.294 383.438 57.0076C383.104 56.7211 382.682 56.5779 382.172 56.5779C381.646 56.5779 381.234 56.6925 380.938 56.9216C380.641 57.1508 380.492 57.4503 380.492 57.8201C380.492 58.169 380.63 58.432 380.906 58.6091C381.182 58.7862 381.68 58.9555 382.398 59.1169C383.122 59.2784 383.708 59.4711 384.156 59.6951C384.604 59.919 384.935 60.1899 385.148 60.5076C385.367 60.8201 385.477 61.2029 385.477 61.656C385.477 62.4112 385.174 63.018 384.57 63.4763C383.966 63.9294 383.182 64.156 382.219 64.156C381.542 64.156 380.943 64.0362 380.422 63.7966C379.901 63.557 379.492 63.2237 379.195 62.7966C378.904 62.3643 378.758 61.8982 378.758 61.3982H380.203C380.229 61.8826 380.422 62.268 380.781 62.5544C381.146 62.8357 381.625 62.9763 382.219 62.9763C382.766 62.9763 383.203 62.8669 383.531 62.6482C383.865 62.4242 384.031 62.1274 384.031 61.7576ZM390.75 62.9763C391.266 62.9763 391.716 62.8201 392.102 62.5076C392.487 62.1951 392.701 61.8044 392.742 61.3357H394.109C394.083 61.8201 393.917 62.281 393.609 62.7185C393.302 63.156 392.891 63.505 392.375 63.7654C391.865 64.0258 391.323 64.156 390.75 64.156C389.599 64.156 388.682 63.7732 388 63.0076C387.323 62.2367 386.984 61.1847 386.984 59.8513V59.6091C386.984 58.7862 387.135 58.0544 387.438 57.4138C387.74 56.7732 388.172 56.2758 388.734 55.9216C389.302 55.5675 389.971 55.3904 390.742 55.3904C391.69 55.3904 392.477 55.6742 393.102 56.2419C393.732 56.8097 394.068 57.5466 394.109 58.4529H392.742C392.701 57.906 392.492 57.4581 392.117 57.1091C391.747 56.755 391.289 56.5779 390.742 56.5779C390.008 56.5779 389.438 56.8435 389.031 57.3748C388.63 57.9008 388.43 58.6638 388.43 59.6638V59.9373C388.43 60.9112 388.63 61.6612 389.031 62.1873C389.432 62.7133 390.005 62.9763 390.75 62.9763ZM397.305 63.9998H395.859V55.5466H397.305V63.9998ZM395.742 53.3044C395.742 53.0701 395.812 52.8722 395.953 52.7107C396.099 52.5492 396.312 52.4685 396.594 52.4685C396.875 52.4685 397.089 52.5492 397.234 52.7107C397.38 52.8722 397.453 53.0701 397.453 53.3044C397.453 53.5388 397.38 53.7341 397.234 53.8904C397.089 54.0466 396.875 54.1248 396.594 54.1248C396.312 54.1248 396.099 54.0466 395.953 53.8904C395.812 53.7341 395.742 53.5388 395.742 53.3044ZM400.992 55.5466L401.039 56.6091C401.685 55.7966 402.529 55.3904 403.57 55.3904C405.357 55.3904 406.258 56.3982 406.273 58.4138V63.9998H404.828V58.406C404.823 57.7966 404.682 57.3461 404.406 57.0544C404.135 56.7628 403.711 56.6169 403.133 56.6169C402.664 56.6169 402.253 56.7419 401.898 56.9919C401.544 57.2419 401.268 57.5701 401.07 57.9763V63.9998H399.625V55.5466H400.992ZM408.109 59.7029C408.109 58.3852 408.414 57.3383 409.023 56.5623C409.633 55.781 410.44 55.3904 411.445 55.3904C412.477 55.3904 413.281 55.755 413.859 56.4841L413.93 55.5466H415.25V63.7966C415.25 64.8904 414.924 65.7524 414.273 66.3826C413.628 67.0128 412.758 67.3279 411.664 67.3279C411.055 67.3279 410.458 67.1977 409.875 66.9373C409.292 66.6768 408.846 66.3201 408.539 65.8669L409.289 64.9998C409.909 65.7654 410.667 66.1482 411.562 66.1482C412.266 66.1482 412.812 65.9503 413.203 65.5544C413.599 65.1586 413.797 64.6013 413.797 63.8826V63.156C413.219 63.8227 412.43 64.156 411.43 64.156C410.44 64.156 409.638 63.7576 409.023 62.9607C408.414 62.1638 408.109 61.0779 408.109 59.7029ZM409.562 59.8669C409.562 60.8201 409.758 61.5701 410.148 62.1169C410.539 62.6586 411.086 62.9294 411.789 62.9294C412.701 62.9294 413.37 62.5154 413.797 61.6873V57.8279C413.354 57.0206 412.69 56.6169 411.805 56.6169C411.102 56.6169 410.552 56.8904 410.156 57.4373C409.76 57.9841 409.562 58.794 409.562 59.8669ZM424.914 64.156C423.768 64.156 422.836 63.781 422.117 63.031C421.398 62.2758 421.039 61.268 421.039 60.0076V59.7419C421.039 58.9034 421.198 58.156 421.516 57.4998C421.839 56.8383 422.286 56.3227 422.859 55.9529C423.438 55.5779 424.062 55.3904 424.734 55.3904C425.833 55.3904 426.688 55.7524 427.297 56.4763C427.906 57.2003 428.211 58.2367 428.211 59.5857V60.1873H422.484C422.505 61.0206 422.747 61.6951 423.211 62.2107C423.68 62.7211 424.273 62.9763 424.992 62.9763C425.503 62.9763 425.935 62.8722 426.289 62.6638C426.643 62.4555 426.953 62.1794 427.219 61.8357L428.102 62.5232C427.393 63.6117 426.331 64.156 424.914 64.156ZM424.734 56.5779C424.151 56.5779 423.661 56.7914 423.266 57.2185C422.87 57.6404 422.625 58.2341 422.531 58.9998H426.766V58.8904C426.724 58.156 426.526 57.5883 426.172 57.1873C425.818 56.781 425.339 56.5779 424.734 56.5779ZM431.461 63.9998H430.016V51.9998H431.461V63.9998ZM435.352 63.9998H433.906V55.5466H435.352V63.9998ZM433.789 53.3044C433.789 53.0701 433.859 52.8722 434 52.7107C434.146 52.5492 434.359 52.4685 434.641 52.4685C434.922 52.4685 435.135 52.5492 435.281 52.7107C435.427 52.8722 435.5 53.0701 435.5 53.3044C435.5 53.5388 435.427 53.7341 435.281 53.8904C435.135 54.0466 434.922 54.1248 434.641 54.1248C434.359 54.1248 434.146 54.0466 434 53.8904C433.859 53.7341 433.789 53.5388 433.789 53.3044ZM439.633 53.4998V55.5466H441.211V56.6638H439.633V61.906C439.633 62.2445 439.703 62.4998 439.844 62.6716C439.984 62.8383 440.224 62.9216 440.562 62.9216C440.729 62.9216 440.958 62.8904 441.25 62.8279V63.9998C440.87 64.1039 440.5 64.156 440.141 64.156C439.495 64.156 439.008 63.9607 438.68 63.5701C438.352 63.1794 438.188 62.6248 438.188 61.906V56.6638H436.648V55.5466H438.188V53.4998H439.633ZM442.938 63.2419C442.938 62.9919 443.01 62.7836 443.156 62.6169C443.307 62.4503 443.531 62.3669 443.828 62.3669C444.125 62.3669 444.349 62.4503 444.5 62.6169C444.656 62.7836 444.734 62.9919 444.734 63.2419C444.734 63.4815 444.656 63.682 444.5 63.8435C444.349 64.005 444.125 64.0857 443.828 64.0857C443.531 64.0857 443.307 64.005 443.156 63.8435C443.01 63.682 442.938 63.4815 442.938 63.2419ZM56.6719 84.9294C55.3854 84.5597 54.4479 84.1065 53.8594 83.5701C53.276 83.0284 52.9844 82.3617 52.9844 81.5701C52.9844 80.6742 53.3411 79.9347 54.0547 79.3513C54.7734 78.7628 55.7057 78.4685 56.8516 78.4685C57.6328 78.4685 58.3281 78.6195 58.9375 78.9216C59.5521 79.2237 60.026 79.6404 60.3594 80.1716C60.6979 80.7029 60.8672 81.2836 60.8672 81.9138H59.3594C59.3594 81.2263 59.1406 80.6873 58.7031 80.2966C58.2656 79.9008 57.6484 79.7029 56.8516 79.7029C56.112 79.7029 55.5339 79.8669 55.1172 80.1951C54.7057 80.518 54.5 80.9685 54.5 81.5466C54.5 82.0102 54.6953 82.4034 55.0859 82.7263C55.4818 83.044 56.151 83.3357 57.0938 83.6013C58.0417 83.8669 58.7812 84.1612 59.3125 84.4841C59.849 84.8018 60.2448 85.1742 60.5 85.6013C60.7604 86.0284 60.8906 86.531 60.8906 87.1091C60.8906 88.031 60.5312 88.7706 59.8125 89.3279C59.0938 89.88 58.1328 90.156 56.9297 90.156C56.1484 90.156 55.4193 90.0076 54.7422 89.7107C54.0651 89.4086 53.5417 88.9972 53.1719 88.4763C52.8073 87.9555 52.625 87.3643 52.625 86.7029H54.1328C54.1328 87.3904 54.3854 87.9347 54.8906 88.3357C55.401 88.7315 56.0807 88.9294 56.9297 88.9294C57.7214 88.9294 58.3281 88.768 58.75 88.4451C59.1719 88.1222 59.3828 87.682 59.3828 87.1248C59.3828 86.5675 59.1875 86.1378 58.7969 85.8357C58.4062 85.5284 57.6979 85.2263 56.6719 84.9294ZM67.8125 89.1638C67.25 89.8253 66.4245 90.156 65.3359 90.156C64.4349 90.156 63.7474 89.8956 63.2734 89.3748C62.8047 88.8487 62.5677 88.0727 62.5625 87.0466V81.5466H64.0078V87.0076C64.0078 88.2888 64.5286 88.9294 65.5703 88.9294C66.6745 88.9294 67.4089 88.518 67.7734 87.6951V81.5466H69.2188V89.9998H67.8438L67.8125 89.1638ZM76.3438 87.7576C76.3438 87.3669 76.1953 87.0649 75.8984 86.8513C75.6068 86.6326 75.0938 86.4451 74.3594 86.2888C73.6302 86.1326 73.0495 85.9451 72.6172 85.7263C72.1901 85.5076 71.8724 85.2472 71.6641 84.9451C71.4609 84.643 71.3594 84.2836 71.3594 83.8669C71.3594 83.1742 71.651 82.5883 72.2344 82.1091C72.8229 81.63 73.5729 81.3904 74.4844 81.3904C75.4427 81.3904 76.2188 81.6378 76.8125 82.1326C77.4115 82.6274 77.7109 83.2602 77.7109 84.031H76.2578C76.2578 83.6352 76.0885 83.294 75.75 83.0076C75.4167 82.7211 74.9948 82.5779 74.4844 82.5779C73.9583 82.5779 73.5469 82.6925 73.25 82.9216C72.9531 83.1508 72.8047 83.4503 72.8047 83.8201C72.8047 84.169 72.9427 84.432 73.2188 84.6091C73.4948 84.7862 73.9922 84.9555 74.7109 85.1169C75.4349 85.2784 76.0208 85.4711 76.4688 85.6951C76.9167 85.919 77.2474 86.1899 77.4609 86.5076C77.6797 86.8201 77.7891 87.2029 77.7891 87.656C77.7891 88.4112 77.487 89.018 76.8828 89.4763C76.2786 89.9294 75.4948 90.156 74.5312 90.156C73.8542 90.156 73.2552 90.0362 72.7344 89.7966C72.2135 89.557 71.8047 89.2237 71.5078 88.7966C71.2161 88.3643 71.0703 87.8982 71.0703 87.3982H72.5156C72.5417 87.8826 72.7344 88.268 73.0938 88.5544C73.4583 88.8357 73.9375 88.9763 74.5312 88.9763C75.0781 88.9763 75.5156 88.8669 75.8438 88.6482C76.1771 88.4242 76.3438 88.1274 76.3438 87.7576ZM86.8125 85.8669C86.8125 87.1534 86.5182 88.1899 85.9297 88.9763C85.3411 89.7628 84.5443 90.156 83.5391 90.156C82.513 90.156 81.7057 89.8305 81.1172 89.1794V93.2498H79.6719V81.5466H80.9922L81.0625 82.4841C81.651 81.755 82.4688 81.3904 83.5156 81.3904C84.5312 81.3904 85.3333 81.7732 85.9219 82.5388C86.5156 83.3044 86.8125 84.3695 86.8125 85.7341V85.8669ZM85.3672 85.7029C85.3672 84.7498 85.1641 83.9972 84.7578 83.4451C84.3516 82.893 83.7943 82.6169 83.0859 82.6169C82.2109 82.6169 81.5547 83.005 81.1172 83.781V87.8201C81.5495 88.5909 82.2109 88.9763 83.1016 88.9763C83.7943 88.9763 84.3438 88.7029 84.75 88.156C85.1615 87.6039 85.3672 86.7862 85.3672 85.7029ZM92.1641 90.156C91.0182 90.156 90.0859 89.781 89.3672 89.031C88.6484 88.2758 88.2891 87.268 88.2891 86.0076V85.7419C88.2891 84.9034 88.4479 84.156 88.7656 83.4998C89.0885 82.8383 89.5365 82.3227 90.1094 81.9529C90.6875 81.5779 91.3125 81.3904 91.9844 81.3904C93.0833 81.3904 93.9375 81.7524 94.5469 82.4763C95.1562 83.2003 95.4609 84.2367 95.4609 85.5857V86.1873H89.7344C89.7552 87.0206 89.9974 87.6951 90.4609 88.2107C90.9297 88.7211 91.5234 88.9763 92.2422 88.9763C92.7526 88.9763 93.1849 88.8722 93.5391 88.6638C93.8932 88.4555 94.2031 88.1794 94.4688 87.8357L95.3516 88.5232C94.6432 89.6117 93.5807 90.156 92.1641 90.156ZM91.9844 82.5779C91.401 82.5779 90.9115 82.7914 90.5156 83.2185C90.1198 83.6404 89.875 84.2341 89.7812 84.9998H94.0156V84.8904C93.974 84.156 93.776 83.5883 93.4219 83.1873C93.0677 82.781 92.5885 82.5779 91.9844 82.5779ZM98.5078 81.5466L98.5547 82.6091C99.2005 81.7966 100.044 81.3904 101.086 81.3904C102.872 81.3904 103.773 82.3982 103.789 84.4138V89.9998H102.344V84.406C102.339 83.7966 102.198 83.3461 101.922 83.0544C101.651 82.7628 101.227 82.6169 100.648 82.6169C100.18 82.6169 99.7682 82.7419 99.4141 82.9919C99.0599 83.2419 98.7839 83.5701 98.5859 83.9763V89.9998H97.1406V81.5466H98.5078ZM105.617 85.7029C105.617 84.406 105.924 83.3643 106.539 82.5779C107.154 81.7862 107.958 81.3904 108.953 81.3904C109.943 81.3904 110.727 81.7289 111.305 82.406V77.9998H112.75V89.9998H111.422L111.352 89.0935C110.773 89.8018 109.969 90.156 108.938 90.156C107.958 90.156 107.159 89.755 106.539 88.9529C105.924 88.1508 105.617 87.1039 105.617 85.8123V85.7029ZM107.062 85.8669C107.062 86.8253 107.26 87.5753 107.656 88.1169C108.052 88.6586 108.599 88.9294 109.297 88.9294C110.214 88.9294 110.883 88.518 111.305 87.6951V83.8123C110.872 83.0154 110.208 82.6169 109.312 82.6169C108.604 82.6169 108.052 82.8904 107.656 83.4373C107.26 83.9841 107.062 84.794 107.062 85.8669ZM116.57 89.9998H115.125V81.5466H116.57V89.9998ZM115.008 79.3044C115.008 79.0701 115.078 78.8722 115.219 78.7107C115.365 78.5492 115.578 78.4685 115.859 78.4685C116.141 78.4685 116.354 78.5492 116.5 78.7107C116.646 78.8722 116.719 79.0701 116.719 79.3044C116.719 79.5388 116.646 79.7341 116.5 79.8904C116.354 80.0466 116.141 80.1248 115.859 80.1248C115.578 80.1248 115.365 80.0466 115.219 79.8904C115.078 79.7341 115.008 79.5388 115.008 79.3044ZM123.812 87.7576C123.812 87.3669 123.664 87.0649 123.367 86.8513C123.076 86.6326 122.562 86.4451 121.828 86.2888C121.099 86.1326 120.518 85.9451 120.086 85.7263C119.659 85.5076 119.341 85.2472 119.133 84.9451C118.93 84.643 118.828 84.2836 118.828 83.8669C118.828 83.1742 119.12 82.5883 119.703 82.1091C120.292 81.63 121.042 81.3904 121.953 81.3904C122.911 81.3904 123.688 81.6378 124.281 82.1326C124.88 82.6274 125.18 83.2602 125.18 84.031H123.727C123.727 83.6352 123.557 83.294 123.219 83.0076C122.885 82.7211 122.464 82.5779 121.953 82.5779C121.427 82.5779 121.016 82.6925 120.719 82.9216C120.422 83.1508 120.273 83.4503 120.273 83.8201C120.273 84.169 120.411 84.432 120.688 84.6091C120.964 84.7862 121.461 84.9555 122.18 85.1169C122.904 85.2784 123.49 85.4711 123.938 85.6951C124.385 85.919 124.716 86.1899 124.93 86.5076C125.148 86.8201 125.258 87.2029 125.258 87.656C125.258 88.4112 124.956 89.018 124.352 89.4763C123.747 89.9294 122.964 90.156 122 90.156C121.323 90.156 120.724 90.0362 120.203 89.7966C119.682 89.557 119.273 89.2237 118.977 88.7966C118.685 88.3643 118.539 87.8982 118.539 87.3982H119.984C120.01 87.8826 120.203 88.268 120.562 88.5544C120.927 88.8357 121.406 88.9763 122 88.9763C122.547 88.9763 122.984 88.8669 123.312 88.6482C123.646 88.4242 123.812 88.1274 123.812 87.7576ZM132.062 87.7576C132.062 87.3669 131.914 87.0649 131.617 86.8513C131.326 86.6326 130.812 86.4451 130.078 86.2888C129.349 86.1326 128.768 85.9451 128.336 85.7263C127.909 85.5076 127.591 85.2472 127.383 84.9451C127.18 84.643 127.078 84.2836 127.078 83.8669C127.078 83.1742 127.37 82.5883 127.953 82.1091C128.542 81.63 129.292 81.3904 130.203 81.3904C131.161 81.3904 131.938 81.6378 132.531 82.1326C133.13 82.6274 133.43 83.2602 133.43 84.031H131.977C131.977 83.6352 131.807 83.294 131.469 83.0076C131.135 82.7211 130.714 82.5779 130.203 82.5779C129.677 82.5779 129.266 82.6925 128.969 82.9216C128.672 83.1508 128.523 83.4503 128.523 83.8201C128.523 84.169 128.661 84.432 128.938 84.6091C129.214 84.7862 129.711 84.9555 130.43 85.1169C131.154 85.2784 131.74 85.4711 132.188 85.6951C132.635 85.919 132.966 86.1899 133.18 86.5076C133.398 86.8201 133.508 87.2029 133.508 87.656C133.508 88.4112 133.206 89.018 132.602 89.4763C131.997 89.9294 131.214 90.156 130.25 90.156C129.573 90.156 128.974 90.0362 128.453 89.7966C127.932 89.557 127.523 89.2237 127.227 88.7966C126.935 88.3643 126.789 87.8982 126.789 87.3982H128.234C128.26 87.8826 128.453 88.268 128.812 88.5544C129.177 88.8357 129.656 88.9763 130.25 88.9763C130.797 88.9763 131.234 88.8669 131.562 88.6482C131.896 88.4242 132.062 88.1274 132.062 87.7576ZM138.898 90.156C137.753 90.156 136.82 89.781 136.102 89.031C135.383 88.2758 135.023 87.268 135.023 86.0076V85.7419C135.023 84.9034 135.182 84.156 135.5 83.4998C135.823 82.8383 136.271 82.3227 136.844 81.9529C137.422 81.5779 138.047 81.3904 138.719 81.3904C139.818 81.3904 140.672 81.7524 141.281 82.4763C141.891 83.2003 142.195 84.2367 142.195 85.5857V86.1873H136.469C136.49 87.0206 136.732 87.6951 137.195 88.2107C137.664 88.7211 138.258 88.9763 138.977 88.9763C139.487 88.9763 139.919 88.8722 140.273 88.6638C140.628 88.4555 140.938 88.1794 141.203 87.8357L142.086 88.5232C141.378 89.6117 140.315 90.156 138.898 90.156ZM138.719 82.5779C138.135 82.5779 137.646 82.7914 137.25 83.2185C136.854 83.6404 136.609 84.2341 136.516 84.9998H140.75V84.8904C140.708 84.156 140.51 83.5883 140.156 83.1873C139.802 82.781 139.323 82.5779 138.719 82.5779ZM150.633 88.0388L152.727 81.5466H154.203L151.172 89.9998H150.07L147.008 81.5466H148.484L150.633 88.0388ZM160.688 89.9998C160.604 89.8331 160.536 89.5362 160.484 89.1091C159.812 89.807 159.01 90.156 158.078 90.156C157.245 90.156 156.56 89.9216 156.023 89.4529C155.492 88.9789 155.227 88.38 155.227 87.656C155.227 86.7758 155.56 86.0935 156.227 85.6091C156.898 85.1195 157.841 84.8748 159.055 84.8748H160.461V84.2107C160.461 83.7055 160.31 83.3044 160.008 83.0076C159.706 82.7055 159.26 82.5544 158.672 82.5544C158.156 82.5544 157.724 82.6847 157.375 82.9451C157.026 83.2055 156.852 83.5206 156.852 83.8904H155.398C155.398 83.4685 155.547 83.0623 155.844 82.6716C156.146 82.2758 156.552 81.9633 157.062 81.7341C157.578 81.505 158.143 81.3904 158.758 81.3904C159.732 81.3904 160.495 81.6352 161.047 82.1248C161.599 82.6091 161.885 83.2784 161.906 84.1326V88.0232C161.906 88.7992 162.005 89.4164 162.203 89.8748V89.9998H160.688ZM158.289 88.8982C158.742 88.8982 159.172 88.781 159.578 88.5466C159.984 88.3123 160.279 88.0076 160.461 87.6326V85.8982H159.328C157.557 85.8982 156.672 86.4164 156.672 87.4529C156.672 87.906 156.823 88.2602 157.125 88.5154C157.427 88.7706 157.815 88.8982 158.289 88.8982ZM168.258 82.8435C168.039 82.807 167.802 82.7888 167.547 82.7888C166.599 82.7888 165.956 83.1925 165.617 83.9998V89.9998H164.172V81.5466H165.578L165.602 82.5232C166.076 81.768 166.747 81.3904 167.617 81.3904C167.898 81.3904 168.112 81.4268 168.258 81.4998V82.8435ZM171.164 89.9998H169.719V81.5466H171.164V89.9998ZM169.602 79.3044C169.602 79.0701 169.672 78.8722 169.812 78.7107C169.958 78.5492 170.172 78.4685 170.453 78.4685C170.734 78.4685 170.948 78.5492 171.094 78.7107C171.24 78.8722 171.312 79.0701 171.312 79.3044C171.312 79.5388 171.24 79.7341 171.094 79.8904C170.948 80.0466 170.734 80.1248 170.453 80.1248C170.172 80.1248 169.958 80.0466 169.812 79.8904C169.672 79.7341 169.602 79.5388 169.602 79.3044ZM178.703 89.1638C178.141 89.8253 177.315 90.156 176.227 90.156C175.326 90.156 174.638 89.8956 174.164 89.3748C173.695 88.8487 173.458 88.0727 173.453 87.0466V81.5466H174.898V87.0076C174.898 88.2888 175.419 88.9294 176.461 88.9294C177.565 88.9294 178.299 88.518 178.664 87.6951V81.5466H180.109V89.9998H178.734L178.703 89.1638ZM187.234 87.7576C187.234 87.3669 187.086 87.0649 186.789 86.8513C186.497 86.6326 185.984 86.4451 185.25 86.2888C184.521 86.1326 183.94 85.9451 183.508 85.7263C183.081 85.5076 182.763 85.2472 182.555 84.9451C182.352 84.643 182.25 84.2836 182.25 83.8669C182.25 83.1742 182.542 82.5883 183.125 82.1091C183.714 81.63 184.464 81.3904 185.375 81.3904C186.333 81.3904 187.109 81.6378 187.703 82.1326C188.302 82.6274 188.602 83.2602 188.602 84.031H187.148C187.148 83.6352 186.979 83.294 186.641 83.0076C186.307 82.7211 185.885 82.5779 185.375 82.5779C184.849 82.5779 184.438 82.6925 184.141 82.9216C183.844 83.1508 183.695 83.4503 183.695 83.8201C183.695 84.169 183.833 84.432 184.109 84.6091C184.385 84.7862 184.883 84.9555 185.602 85.1169C186.326 85.2784 186.911 85.4711 187.359 85.6951C187.807 85.919 188.138 86.1899 188.352 86.5076C188.57 86.8201 188.68 87.2029 188.68 87.656C188.68 88.4112 188.378 89.018 187.773 89.4763C187.169 89.9294 186.385 90.156 185.422 90.156C184.745 90.156 184.146 90.0362 183.625 89.7966C183.104 89.557 182.695 89.2237 182.398 88.7966C182.107 88.3643 181.961 87.8982 181.961 87.3982H183.406C183.432 87.8826 183.625 88.268 183.984 88.5544C184.349 88.8357 184.828 88.9763 185.422 88.9763C185.969 88.9763 186.406 88.8669 186.734 88.6482C187.068 88.4242 187.234 88.1274 187.234 87.7576ZM198.039 90.156C196.893 90.156 195.961 89.781 195.242 89.031C194.523 88.2758 194.164 87.268 194.164 86.0076V85.7419C194.164 84.9034 194.323 84.156 194.641 83.4998C194.964 82.8383 195.411 82.3227 195.984 81.9529C196.562 81.5779 197.188 81.3904 197.859 81.3904C198.958 81.3904 199.812 81.7524 200.422 82.4763C201.031 83.2003 201.336 84.2367 201.336 85.5857V86.1873H195.609C195.63 87.0206 195.872 87.6951 196.336 88.2107C196.805 88.7211 197.398 88.9763 198.117 88.9763C198.628 88.9763 199.06 88.8722 199.414 88.6638C199.768 88.4555 200.078 88.1794 200.344 87.8357L201.227 88.5232C200.518 89.6117 199.456 90.156 198.039 90.156ZM197.859 82.5779C197.276 82.5779 196.786 82.7914 196.391 83.2185C195.995 83.6404 195.75 84.2341 195.656 84.9998H199.891V84.8904C199.849 84.156 199.651 83.5883 199.297 83.1873C198.943 82.781 198.464 82.5779 197.859 82.5779ZM204.383 81.5466L204.43 82.6091C205.076 81.7966 205.919 81.3904 206.961 81.3904C208.747 81.3904 209.648 82.3982 209.664 84.4138V89.9998H208.219V84.406C208.214 83.7966 208.073 83.3461 207.797 83.0544C207.526 82.7628 207.102 82.6169 206.523 82.6169C206.055 82.6169 205.643 82.7419 205.289 82.9919C204.935 83.2419 204.659 83.5701 204.461 83.9763V89.9998H203.016V81.5466H204.383ZM213.414 89.9998H211.969V81.5466H213.414V89.9998ZM211.852 79.3044C211.852 79.0701 211.922 78.8722 212.062 78.7107C212.208 78.5492 212.422 78.4685 212.703 78.4685C212.984 78.4685 213.198 78.5492 213.344 78.7107C213.49 78.8722 213.562 79.0701 213.562 79.3044C213.562 79.5388 213.49 79.7341 213.344 79.8904C213.198 80.0466 212.984 80.1248 212.703 80.1248C212.422 80.1248 212.208 80.0466 212.062 79.8904C211.922 79.7341 211.852 79.5388 211.852 79.3044ZM217.094 81.5466L217.133 82.4841C217.753 81.755 218.589 81.3904 219.641 81.3904C220.823 81.3904 221.628 81.8435 222.055 82.7498C222.336 82.3435 222.701 82.0154 223.148 81.7654C223.602 81.5154 224.135 81.3904 224.75 81.3904C226.604 81.3904 227.547 82.3722 227.578 84.3357V89.9998H226.133V84.4216C226.133 83.8175 225.995 83.3669 225.719 83.0701C225.443 82.768 224.979 82.6169 224.328 82.6169C223.792 82.6169 223.346 82.7784 222.992 83.1013C222.638 83.419 222.432 83.8487 222.375 84.3904V89.9998H220.922V84.4607C220.922 83.2315 220.32 82.6169 219.117 82.6169C218.169 82.6169 217.521 83.0206 217.172 83.8279V89.9998H215.727V81.5466H217.094ZM235.305 89.9998H233.859V81.5466H235.305V89.9998ZM233.742 79.3044C233.742 79.0701 233.812 78.8722 233.953 78.7107C234.099 78.5492 234.312 78.4685 234.594 78.4685C234.875 78.4685 235.089 78.5492 235.234 78.7107C235.38 78.8722 235.453 79.0701 235.453 79.3044C235.453 79.5388 235.38 79.7341 235.234 79.8904C235.089 80.0466 234.875 80.1248 234.594 80.1248C234.312 80.1248 234.099 80.0466 233.953 79.8904C233.812 79.7341 233.742 79.5388 233.742 79.3044ZM238.992 81.5466L239.039 82.6091C239.685 81.7966 240.529 81.3904 241.57 81.3904C243.357 81.3904 244.258 82.3982 244.273 84.4138V89.9998H242.828V84.406C242.823 83.7966 242.682 83.3461 242.406 83.0544C242.135 82.7628 241.711 82.6169 241.133 82.6169C240.664 82.6169 240.253 82.7419 239.898 82.9919C239.544 83.2419 239.268 83.5701 239.07 83.9763V89.9998H237.625V81.5466H238.992ZM253.93 90.156C252.784 90.156 251.852 89.781 251.133 89.031C250.414 88.2758 250.055 87.268 250.055 86.0076V85.7419C250.055 84.9034 250.214 84.156 250.531 83.4998C250.854 82.8383 251.302 82.3227 251.875 81.9529C252.453 81.5779 253.078 81.3904 253.75 81.3904C254.849 81.3904 255.703 81.7524 256.312 82.4763C256.922 83.2003 257.227 84.2367 257.227 85.5857V86.1873H251.5C251.521 87.0206 251.763 87.6951 252.227 88.2107C252.695 88.7211 253.289 88.9763 254.008 88.9763C254.518 88.9763 254.951 88.8722 255.305 88.6638C255.659 88.4555 255.969 88.1794 256.234 87.8357L257.117 88.5232C256.409 89.6117 255.346 90.156 253.93 90.156ZM253.75 82.5779C253.167 82.5779 252.677 82.7914 252.281 83.2185C251.885 83.6404 251.641 84.2341 251.547 84.9998H255.781V84.8904C255.74 84.156 255.542 83.5883 255.188 83.1873C254.833 82.781 254.354 82.5779 253.75 82.5779ZM262.992 82.8435C262.773 82.807 262.536 82.7888 262.281 82.7888C261.333 82.7888 260.69 83.1925 260.352 83.9998V89.9998H258.906V81.5466H260.312L260.336 82.5232C260.81 81.768 261.482 81.3904 262.352 81.3904C262.633 81.3904 262.846 81.4268 262.992 81.4998V82.8435ZM263.789 85.6951C263.789 84.8669 263.951 84.1222 264.273 83.4607C264.602 82.7992 265.055 82.2888 265.633 81.9294C266.216 81.5701 266.88 81.3904 267.625 81.3904C268.776 81.3904 269.706 81.7888 270.414 82.5857C271.128 83.3826 271.484 84.4425 271.484 85.7654V85.8669C271.484 86.6899 271.326 87.4294 271.008 88.0857C270.695 88.7367 270.245 89.2445 269.656 89.6091C269.073 89.9737 268.401 90.156 267.641 90.156C266.495 90.156 265.565 89.7576 264.852 88.9607C264.143 88.1638 263.789 87.1091 263.789 85.7966V85.6951ZM265.242 85.8669C265.242 86.8044 265.458 87.557 265.891 88.1248C266.328 88.6925 266.911 88.9763 267.641 88.9763C268.375 88.9763 268.958 88.6899 269.391 88.1169C269.823 87.5388 270.039 86.7315 270.039 85.6951C270.039 84.768 269.818 84.018 269.375 83.4451C268.938 82.8669 268.354 82.5779 267.625 82.5779C266.911 82.5779 266.336 82.8617 265.898 83.4294C265.461 83.9972 265.242 84.8097 265.242 85.8669ZM278.219 87.7576C278.219 87.3669 278.07 87.0649 277.773 86.8513C277.482 86.6326 276.969 86.4451 276.234 86.2888C275.505 86.1326 274.924 85.9451 274.492 85.7263C274.065 85.5076 273.747 85.2472 273.539 84.9451C273.336 84.643 273.234 84.2836 273.234 83.8669C273.234 83.1742 273.526 82.5883 274.109 82.1091C274.698 81.63 275.448 81.3904 276.359 81.3904C277.318 81.3904 278.094 81.6378 278.688 82.1326C279.286 82.6274 279.586 83.2602 279.586 84.031H278.133C278.133 83.6352 277.964 83.294 277.625 83.0076C277.292 82.7211 276.87 82.5779 276.359 82.5779C275.833 82.5779 275.422 82.6925 275.125 82.9216C274.828 83.1508 274.68 83.4503 274.68 83.8201C274.68 84.169 274.818 84.432 275.094 84.6091C275.37 84.7862 275.867 84.9555 276.586 85.1169C277.31 85.2784 277.896 85.4711 278.344 85.6951C278.792 85.919 279.122 86.1899 279.336 86.5076C279.555 86.8201 279.664 87.2029 279.664 87.656C279.664 88.4112 279.362 89.018 278.758 89.4763C278.154 89.9294 277.37 90.156 276.406 90.156C275.729 90.156 275.13 90.0362 274.609 89.7966C274.089 89.557 273.68 89.2237 273.383 88.7966C273.091 88.3643 272.945 87.8982 272.945 87.3982H274.391C274.417 87.8826 274.609 88.268 274.969 88.5544C275.333 88.8357 275.812 88.9763 276.406 88.9763C276.953 88.9763 277.391 88.8669 277.719 88.6482C278.052 88.4242 278.219 88.1274 278.219 87.7576ZM289.023 90.156C287.878 90.156 286.945 89.781 286.227 89.031C285.508 88.2758 285.148 87.268 285.148 86.0076V85.7419C285.148 84.9034 285.307 84.156 285.625 83.4998C285.948 82.8383 286.396 82.3227 286.969 81.9529C287.547 81.5779 288.172 81.3904 288.844 81.3904C289.943 81.3904 290.797 81.7524 291.406 82.4763C292.016 83.2003 292.32 84.2367 292.32 85.5857V86.1873H286.594C286.615 87.0206 286.857 87.6951 287.32 88.2107C287.789 88.7211 288.383 88.9763 289.102 88.9763C289.612 88.9763 290.044 88.8722 290.398 88.6638C290.753 88.4555 291.062 88.1794 291.328 87.8357L292.211 88.5232C291.503 89.6117 290.44 90.156 289.023 90.156ZM288.844 82.5779C288.26 82.5779 287.771 82.7914 287.375 83.2185C286.979 83.6404 286.734 84.2341 286.641 84.9998H290.875V84.8904C290.833 84.156 290.635 83.5883 290.281 83.1873C289.927 82.781 289.448 82.5779 288.844 82.5779ZM295.57 89.9998H294.125V77.9998H295.57V89.9998ZM301.398 90.156C300.253 90.156 299.32 89.781 298.602 89.031C297.883 88.2758 297.523 87.268 297.523 86.0076V85.7419C297.523 84.9034 297.682 84.156 298 83.4998C298.323 82.8383 298.771 82.3227 299.344 81.9529C299.922 81.5779 300.547 81.3904 301.219 81.3904C302.318 81.3904 303.172 81.7524 303.781 82.4763C304.391 83.2003 304.695 84.2367 304.695 85.5857V86.1873H298.969C298.99 87.0206 299.232 87.6951 299.695 88.2107C300.164 88.7211 300.758 88.9763 301.477 88.9763C301.987 88.9763 302.419 88.8722 302.773 88.6638C303.128 88.4555 303.438 88.1794 303.703 87.8357L304.586 88.5232C303.878 89.6117 302.815 90.156 301.398 90.156ZM301.219 82.5779C300.635 82.5779 300.146 82.7914 299.75 83.2185C299.354 83.6404 299.109 84.2341 299.016 84.9998H303.25V84.8904C303.208 84.156 303.01 83.5883 302.656 83.1873C302.302 82.781 301.823 82.5779 301.219 82.5779ZM307.734 81.5466L307.773 82.4841C308.393 81.755 309.229 81.3904 310.281 81.3904C311.464 81.3904 312.268 81.8435 312.695 82.7498C312.977 82.3435 313.341 82.0154 313.789 81.7654C314.242 81.5154 314.776 81.3904 315.391 81.3904C317.245 81.3904 318.188 82.3722 318.219 84.3357V89.9998H316.773V84.4216C316.773 83.8175 316.635 83.3669 316.359 83.0701C316.083 82.768 315.62 82.6169 314.969 82.6169C314.432 82.6169 313.987 82.7784 313.633 83.1013C313.279 83.419 313.073 83.8487 313.016 84.3904V89.9998H311.562V84.4607C311.562 83.2315 310.961 82.6169 309.758 82.6169C308.81 82.6169 308.161 83.0206 307.812 83.8279V89.9998H306.367V81.5466H307.734ZM323.914 90.156C322.768 90.156 321.836 89.781 321.117 89.031C320.398 88.2758 320.039 87.268 320.039 86.0076V85.7419C320.039 84.9034 320.198 84.156 320.516 83.4998C320.839 82.8383 321.286 82.3227 321.859 81.9529C322.438 81.5779 323.062 81.3904 323.734 81.3904C324.833 81.3904 325.688 81.7524 326.297 82.4763C326.906 83.2003 327.211 84.2367 327.211 85.5857V86.1873H321.484C321.505 87.0206 321.747 87.6951 322.211 88.2107C322.68 88.7211 323.273 88.9763 323.992 88.9763C324.503 88.9763 324.935 88.8722 325.289 88.6638C325.643 88.4555 325.953 88.1794 326.219 87.8357L327.102 88.5232C326.393 89.6117 325.331 90.156 323.914 90.156ZM323.734 82.5779C323.151 82.5779 322.661 82.7914 322.266 83.2185C321.87 83.6404 321.625 84.2341 321.531 84.9998H325.766V84.8904C325.724 84.156 325.526 83.5883 325.172 83.1873C324.818 82.781 324.339 82.5779 323.734 82.5779ZM330.258 81.5466L330.305 82.6091C330.951 81.7966 331.794 81.3904 332.836 81.3904C334.622 81.3904 335.523 82.3982 335.539 84.4138V89.9998H334.094V84.406C334.089 83.7966 333.948 83.3461 333.672 83.0544C333.401 82.7628 332.977 82.6169 332.398 82.6169C331.93 82.6169 331.518 82.7419 331.164 82.9919C330.81 83.2419 330.534 83.5701 330.336 83.9763V89.9998H328.891V81.5466H330.258ZM339.68 79.4998V81.5466H341.258V82.6638H339.68V87.906C339.68 88.2445 339.75 88.4998 339.891 88.6716C340.031 88.8383 340.271 88.9216 340.609 88.9216C340.776 88.9216 341.005 88.8904 341.297 88.8279V89.9998C340.917 90.1039 340.547 90.156 340.188 90.156C339.542 90.156 339.055 89.9607 338.727 89.5701C338.398 89.1794 338.234 88.6248 338.234 87.906V82.6638H336.695V81.5466H338.234V79.4998H339.68ZM348.172 89.1638C347.609 89.8253 346.784 90.156 345.695 90.156C344.794 90.156 344.107 89.8956 343.633 89.3748C343.164 88.8487 342.927 88.0727 342.922 87.0466V81.5466H344.367V87.0076C344.367 88.2888 344.888 88.9294 345.93 88.9294C347.034 88.9294 347.768 88.518 348.133 87.6951V81.5466H349.578V89.9998H348.203L348.172 89.1638ZM353.141 81.5466L353.18 82.4841C353.799 81.755 354.635 81.3904 355.688 81.3904C356.87 81.3904 357.674 81.8435 358.102 82.7498C358.383 82.3435 358.747 82.0154 359.195 81.7654C359.648 81.5154 360.182 81.3904 360.797 81.3904C362.651 81.3904 363.594 82.3722 363.625 84.3357V89.9998H362.18V84.4216C362.18 83.8175 362.042 83.3669 361.766 83.0701C361.49 82.768 361.026 82.6169 360.375 82.6169C359.839 82.6169 359.393 82.7784 359.039 83.1013C358.685 83.419 358.479 83.8487 358.422 84.3904V89.9998H356.969V84.4607C356.969 83.2315 356.367 82.6169 355.164 82.6169C354.216 82.6169 353.568 83.0206 353.219 83.8279V89.9998H351.773V81.5466H353.141ZM371.742 79.4998V81.5466H373.32V82.6638H371.742V87.906C371.742 88.2445 371.812 88.4998 371.953 88.6716C372.094 88.8383 372.333 88.9216 372.672 88.9216C372.839 88.9216 373.068 88.8904 373.359 88.8279V89.9998C372.979 90.1039 372.609 90.156 372.25 90.156C371.604 90.156 371.117 89.9607 370.789 89.5701C370.461 89.1794 370.297 88.6248 370.297 87.906V82.6638H368.758V81.5466H370.297V79.4998H371.742ZM379.102 82.8435C378.883 82.807 378.646 82.7888 378.391 82.7888C377.443 82.7888 376.799 83.1925 376.461 83.9998V89.9998H375.016V81.5466H376.422L376.445 82.5232C376.919 81.768 377.591 81.3904 378.461 81.3904C378.742 81.3904 378.956 81.4268 379.102 81.4998V82.8435ZM382.008 89.9998H380.562V81.5466H382.008V89.9998ZM380.445 79.3044C380.445 79.0701 380.516 78.8722 380.656 78.7107C380.802 78.5492 381.016 78.4685 381.297 78.4685C381.578 78.4685 381.792 78.5492 381.938 78.7107C382.083 78.8722 382.156 79.0701 382.156 79.3044C382.156 79.5388 382.083 79.7341 381.938 79.8904C381.792 80.0466 381.578 80.1248 381.297 80.1248C381.016 80.1248 380.802 80.0466 380.656 79.8904C380.516 79.7341 380.445 79.5388 380.445 79.3044ZM389.25 87.7576C389.25 87.3669 389.102 87.0649 388.805 86.8513C388.513 86.6326 388 86.4451 387.266 86.2888C386.536 86.1326 385.956 85.9451 385.523 85.7263C385.096 85.5076 384.779 85.2472 384.57 84.9451C384.367 84.643 384.266 84.2836 384.266 83.8669C384.266 83.1742 384.557 82.5883 385.141 82.1091C385.729 81.63 386.479 81.3904 387.391 81.3904C388.349 81.3904 389.125 81.6378 389.719 82.1326C390.318 82.6274 390.617 83.2602 390.617 84.031H389.164C389.164 83.6352 388.995 83.294 388.656 83.0076C388.323 82.7211 387.901 82.5779 387.391 82.5779C386.865 82.5779 386.453 82.6925 386.156 82.9216C385.859 83.1508 385.711 83.4503 385.711 83.8201C385.711 84.169 385.849 84.432 386.125 84.6091C386.401 84.7862 386.898 84.9555 387.617 85.1169C388.341 85.2784 388.927 85.4711 389.375 85.6951C389.823 85.919 390.154 86.1899 390.367 86.5076C390.586 86.8201 390.695 87.2029 390.695 87.656C390.695 88.4112 390.393 89.018 389.789 89.4763C389.185 89.9294 388.401 90.156 387.438 90.156C386.76 90.156 386.161 90.0362 385.641 89.7966C385.12 89.557 384.711 89.2237 384.414 88.7966C384.122 88.3643 383.977 87.8982 383.977 87.3982H385.422C385.448 87.8826 385.641 88.268 386 88.5544C386.365 88.8357 386.844 88.9763 387.438 88.9763C387.984 88.9763 388.422 88.8669 388.75 88.6482C389.083 88.4242 389.25 88.1274 389.25 87.7576ZM394.539 79.4998V81.5466H396.117V82.6638H394.539V87.906C394.539 88.2445 394.609 88.4998 394.75 88.6716C394.891 88.8383 395.13 88.9216 395.469 88.9216C395.635 88.9216 395.865 88.8904 396.156 88.8279V89.9998C395.776 90.1039 395.406 90.156 395.047 90.156C394.401 90.156 393.914 89.9607 393.586 89.5701C393.258 89.1794 393.094 88.6248 393.094 87.906V82.6638H391.555V81.5466H393.094V79.4998H394.539ZM399.383 89.9998H397.938V81.5466H399.383V89.9998ZM397.82 79.3044C397.82 79.0701 397.891 78.8722 398.031 78.7107C398.177 78.5492 398.391 78.4685 398.672 78.4685C398.953 78.4685 399.167 78.5492 399.312 78.7107C399.458 78.8722 399.531 79.0701 399.531 79.3044C399.531 79.5388 399.458 79.7341 399.312 79.8904C399.167 80.0466 398.953 80.1248 398.672 80.1248C398.391 80.1248 398.177 80.0466 398.031 79.8904C397.891 79.7341 397.82 79.5388 397.82 79.3044ZM401.352 85.7029C401.352 84.3748 401.656 83.3253 402.266 82.5544C402.875 81.7784 403.693 81.3904 404.719 81.3904C405.719 81.3904 406.508 81.7263 407.086 82.3982L407.148 81.5466H408.477V93.2498H407.031V89.2185C406.448 89.8435 405.672 90.156 404.703 90.156C403.682 90.156 402.867 89.7602 402.258 88.9685C401.654 88.1716 401.352 87.1169 401.352 85.8044V85.7029ZM402.797 85.8669C402.797 86.8357 403 87.5961 403.406 88.1482C403.818 88.7003 404.37 88.9763 405.062 88.9763C405.922 88.9763 406.578 88.5961 407.031 87.8357V83.6951C406.573 82.9503 405.922 82.5779 405.078 82.5779C404.38 82.5779 403.826 82.8565 403.414 83.4138C403.003 83.9659 402.797 84.7836 402.797 85.8669ZM416.016 89.1638C415.453 89.8253 414.628 90.156 413.539 90.156C412.638 90.156 411.951 89.8956 411.477 89.3748C411.008 88.8487 410.771 88.0727 410.766 87.0466V81.5466H412.211V87.0076C412.211 88.2888 412.732 88.9294 413.773 88.9294C414.878 88.9294 415.612 88.518 415.977 87.6951V81.5466H417.422V89.9998H416.047L416.016 89.1638ZM423.133 90.156C421.987 90.156 421.055 89.781 420.336 89.031C419.617 88.2758 419.258 87.268 419.258 86.0076V85.7419C419.258 84.9034 419.417 84.156 419.734 83.4998C420.057 82.8383 420.505 82.3227 421.078 81.9529C421.656 81.5779 422.281 81.3904 422.953 81.3904C424.052 81.3904 424.906 81.7524 425.516 82.4763C426.125 83.2003 426.43 84.2367 426.43 85.5857V86.1873H420.703C420.724 87.0206 420.966 87.6951 421.43 88.2107C421.898 88.7211 422.492 88.9763 423.211 88.9763C423.721 88.9763 424.154 88.8722 424.508 88.6638C424.862 88.4555 425.172 88.1794 425.438 87.8357L426.32 88.5232C425.612 89.6117 424.549 90.156 423.133 90.156ZM422.953 82.5779C422.37 82.5779 421.88 82.7914 421.484 83.2185C421.089 83.6404 420.844 84.2341 420.75 84.9998H424.984V84.8904C424.943 84.156 424.745 83.5883 424.391 83.1873C424.036 82.781 423.557 82.5779 422.953 82.5779ZM428.141 89.2419C428.141 88.9919 428.214 88.7836 428.359 88.6169C428.51 88.4503 428.734 88.3669 429.031 88.3669C429.328 88.3669 429.552 88.4503 429.703 88.6169C429.859 88.7836 429.938 88.9919 429.938 89.2419C429.938 89.4815 429.859 89.682 429.703 89.8435C429.552 90.005 429.328 90.0857 429.031 90.0857C428.734 90.0857 428.51 90.005 428.359 89.8435C428.214 89.682 428.141 89.4815 428.141 89.2419Z" fill="#525560"/>
<path d="M61.2578 22.5115C61.2578 21.8708 61.0781 21.363 60.7188 20.988C60.3672 20.6052 59.7656 20.2537 58.9141 19.9333C58.0625 19.613 57.3281 19.2966 56.7109 18.9841C56.0938 18.6638 55.5625 18.3005 55.1172 17.8943C54.6797 17.4802 54.3359 16.9958 54.0859 16.4412C53.8438 15.8865 53.7227 15.2263 53.7227 14.4607C53.7227 13.1404 54.1445 12.0583 54.9883 11.2146C55.832 10.3708 56.9531 9.87866 58.3516 9.73804V7.23022H60.2266V9.77319C61.6094 9.96851 62.6914 10.5466 63.4727 11.5076C64.2539 12.4607 64.6445 13.699 64.6445 15.2224H61.2578C61.2578 14.2849 61.0625 13.5857 60.6719 13.1248C60.2891 12.656 59.7734 12.4216 59.125 12.4216C58.4844 12.4216 57.9883 12.6052 57.6367 12.9724C57.2852 13.3318 57.1094 13.8318 57.1094 14.4724C57.1094 15.0662 57.2812 15.5427 57.625 15.9021C57.9688 16.2615 58.6055 16.6287 59.5352 17.0037C60.4727 17.3787 61.2422 17.7341 61.8438 18.0701C62.4453 18.3982 62.9531 18.7732 63.3672 19.1951C63.7812 19.6091 64.0977 20.0857 64.3164 20.6248C64.5352 21.156 64.6445 21.7771 64.6445 22.488C64.6445 23.8162 64.2305 24.8943 63.4023 25.7224C62.5742 26.5505 61.4336 27.0388 59.9805 27.1873V29.5193H58.1172V27.199C56.5156 27.0271 55.2734 26.4607 54.3906 25.4998C53.5156 24.531 53.0781 23.2458 53.0781 21.6443H56.4648C56.4648 22.574 56.6836 23.2888 57.1211 23.7888C57.5664 24.281 58.2031 24.5271 59.0312 24.5271C59.7188 24.5271 60.2617 24.3474 60.6602 23.988C61.0586 23.6208 61.2578 23.1287 61.2578 22.5115ZM70.3867 16.9685H72.1914C73.0508 16.9685 73.6875 16.7537 74.1016 16.324C74.5156 15.8943 74.7227 15.324 74.7227 14.613C74.7227 13.9255 74.5156 13.3904 74.1016 13.0076C73.6953 12.6248 73.1328 12.4333 72.4141 12.4333C71.7656 12.4333 71.2227 12.613 70.7852 12.9724C70.3477 13.324 70.1289 13.7849 70.1289 14.3552H66.7422C66.7422 13.4646 66.9805 12.6677 67.457 11.9646C67.9414 11.2537 68.6133 10.699 69.4727 10.3005C70.3398 9.9021 71.293 9.70288 72.332 9.70288C74.1367 9.70288 75.5508 10.1365 76.5742 11.0037C77.5977 11.863 78.1094 13.0505 78.1094 14.5662C78.1094 15.3474 77.8711 16.0662 77.3945 16.7224C76.918 17.3787 76.293 17.8826 75.5195 18.2341C76.4805 18.5779 77.1953 19.0935 77.6641 19.781C78.1406 20.4685 78.3789 21.281 78.3789 22.2185C78.3789 23.7341 77.8242 24.949 76.7148 25.863C75.6133 26.7771 74.1523 27.2341 72.332 27.2341C70.6289 27.2341 69.2344 26.7849 68.1484 25.8865C67.0703 24.988 66.5312 23.8005 66.5312 22.324H69.918C69.918 22.9646 70.1562 23.488 70.6328 23.8943C71.1172 24.3005 71.7109 24.5037 72.4141 24.5037C73.2188 24.5037 73.8477 24.2927 74.3008 23.8708C74.7617 23.4412 74.9922 22.8748 74.9922 22.1716C74.9922 20.4685 74.0547 19.6169 72.1797 19.6169H70.3867V16.9685ZM92.418 26.9998H80.7227V24.6794L86.2422 18.7966C87 17.9685 87.5586 17.2458 87.918 16.6287C88.2852 16.0115 88.4688 15.4255 88.4688 14.8708C88.4688 14.113 88.2773 13.5193 87.8945 13.0896C87.5117 12.6521 86.9648 12.4333 86.2539 12.4333C85.4883 12.4333 84.8828 12.699 84.4375 13.2302C84 13.7537 83.7812 14.4451 83.7812 15.3044H80.3828C80.3828 14.2654 80.6289 13.3162 81.1211 12.4568C81.6211 11.5974 82.3242 10.9255 83.2305 10.4412C84.1367 9.94897 85.1641 9.70288 86.3125 9.70288C88.0703 9.70288 89.4336 10.1248 90.4023 10.9685C91.3789 11.8123 91.8672 13.0037 91.8672 14.5427C91.8672 15.3865 91.6484 16.2458 91.2109 17.1208C90.7734 17.9958 90.0234 19.0154 88.9609 20.1794L85.082 24.2693H92.418V26.9998ZM104.523 20.5779H106.457V23.3083H104.523V26.9998H101.137V23.3083H94.1406L93.9883 21.1755L101.102 9.93726H104.523V20.5779ZM97.3633 20.5779H101.137V14.5544L100.914 14.9412L97.3633 20.5779ZM120.941 20.7537H118.141V26.9998H114.625V9.93726H120.965C122.98 9.93726 124.535 10.3865 125.629 11.2849C126.723 12.1833 127.27 13.4529 127.27 15.0935C127.27 16.2576 127.016 17.2302 126.508 18.0115C126.008 18.7849 125.246 19.4021 124.223 19.863L127.914 26.8357V26.9998H124.141L120.941 20.7537ZM118.141 17.906H120.977C121.859 17.906 122.543 17.6833 123.027 17.238C123.512 16.7849 123.754 16.1638 123.754 15.3748C123.754 14.5701 123.523 13.9373 123.062 13.4763C122.609 13.0154 121.91 12.7849 120.965 12.7849H118.141V17.906ZM137.078 26.9998C136.922 26.6951 136.809 26.3162 136.738 25.863C135.918 26.7771 134.852 27.2341 133.539 27.2341C132.297 27.2341 131.266 26.8748 130.445 26.156C129.633 25.4373 129.227 24.531 129.227 23.4373C129.227 22.0935 129.723 21.0623 130.715 20.3435C131.715 19.6248 133.156 19.2615 135.039 19.2537H136.598V18.5271C136.598 17.9412 136.445 17.4724 136.141 17.1208C135.844 16.7693 135.371 16.5935 134.723 16.5935C134.152 16.5935 133.703 16.7302 133.375 17.0037C133.055 17.2771 132.895 17.6521 132.895 18.1287H129.508C129.508 17.3943 129.734 16.7146 130.188 16.0896C130.641 15.4646 131.281 14.9763 132.109 14.6248C132.938 14.2654 133.867 14.0857 134.898 14.0857C136.461 14.0857 137.699 14.4802 138.613 15.2693C139.535 16.0505 139.996 17.1521 139.996 18.574V24.0701C140.004 25.2732 140.172 26.1833 140.5 26.8005V26.9998H137.078ZM134.277 24.6443C134.777 24.6443 135.238 24.5349 135.66 24.3162C136.082 24.0896 136.395 23.7888 136.598 23.4138V21.2341H135.332C133.637 21.2341 132.734 21.8201 132.625 22.9919L132.613 23.1912C132.613 23.613 132.762 23.9607 133.059 24.2341C133.355 24.5076 133.762 24.6443 134.277 24.6443ZM146.172 26.9998H142.773V14.3201H146.172V26.9998ZM142.574 11.0388C142.574 10.531 142.742 10.113 143.078 9.78491C143.422 9.45679 143.887 9.29272 144.473 9.29272C145.051 9.29272 145.512 9.45679 145.855 9.78491C146.199 10.113 146.371 10.531 146.371 11.0388C146.371 11.5544 146.195 11.9763 145.844 12.3044C145.5 12.6326 145.043 12.7966 144.473 12.7966C143.902 12.7966 143.441 12.6326 143.09 12.3044C142.746 11.9763 142.574 11.5544 142.574 11.0388ZM155.84 23.4958C155.84 23.0818 155.633 22.7576 155.219 22.5232C154.812 22.281 154.156 22.0662 153.25 21.8787C150.234 21.2458 148.727 19.9646 148.727 18.0349C148.727 16.9099 149.191 15.9724 150.121 15.2224C151.059 14.4646 152.281 14.0857 153.789 14.0857C155.398 14.0857 156.684 14.4646 157.645 15.2224C158.613 15.9802 159.098 16.9646 159.098 18.1755H155.711C155.711 17.6912 155.555 17.2927 155.242 16.9802C154.93 16.6599 154.441 16.4998 153.777 16.4998C153.207 16.4998 152.766 16.6287 152.453 16.8865C152.141 17.1443 151.984 17.4724 151.984 17.8708C151.984 18.2458 152.16 18.5505 152.512 18.7849C152.871 19.0115 153.473 19.2107 154.316 19.3826C155.16 19.5466 155.871 19.7341 156.449 19.9451C158.238 20.6013 159.133 21.738 159.133 23.3552C159.133 24.5115 158.637 25.449 157.645 26.1677C156.652 26.8787 155.371 27.2341 153.801 27.2341C152.738 27.2341 151.793 27.0466 150.965 26.6716C150.145 26.2888 149.5 25.7693 149.031 25.113C148.562 24.449 148.328 23.7341 148.328 22.9685H151.539C151.57 23.5701 151.793 24.031 152.207 24.3513C152.621 24.6716 153.176 24.8318 153.871 24.8318C154.52 24.8318 155.008 24.7107 155.336 24.4685C155.672 24.2185 155.84 23.8943 155.84 23.4958ZM167.16 27.2341C165.301 27.2341 163.785 26.6638 162.613 25.5232C161.449 24.3826 160.867 22.863 160.867 20.9646V20.6365C160.867 19.363 161.113 18.2263 161.605 17.2263C162.098 16.2185 162.793 15.4451 163.691 14.906C164.598 14.3591 165.629 14.0857 166.785 14.0857C168.52 14.0857 169.883 14.6326 170.875 15.7263C171.875 16.8201 172.375 18.3708 172.375 20.3787V21.7615H164.301C164.41 22.5896 164.738 23.2537 165.285 23.7537C165.84 24.2537 166.539 24.5037 167.383 24.5037C168.688 24.5037 169.707 24.031 170.441 23.0857L172.105 24.949C171.598 25.6677 170.91 26.2302 170.043 26.6365C169.176 27.0349 168.215 27.2341 167.16 27.2341ZM166.773 16.8279C166.102 16.8279 165.555 17.0544 165.133 17.5076C164.719 17.9607 164.453 18.6091 164.336 19.4529H169.047V19.1833C169.031 18.4333 168.828 17.8552 168.438 17.449C168.047 17.0349 167.492 16.8279 166.773 16.8279ZM173.781 20.5662C173.781 18.5896 174.223 17.0154 175.105 15.8435C175.996 14.6716 177.211 14.0857 178.75 14.0857C179.984 14.0857 181.004 14.5466 181.809 15.4685V8.99976H185.207V26.9998H182.148L181.984 25.6521C181.141 26.7068 180.055 27.2341 178.727 27.2341C177.234 27.2341 176.035 26.6482 175.129 25.4763C174.23 24.2966 173.781 22.6599 173.781 20.5662ZM177.168 20.8123C177.168 21.9998 177.375 22.9099 177.789 23.5427C178.203 24.1755 178.805 24.4919 179.594 24.4919C180.641 24.4919 181.379 24.0505 181.809 23.1677V18.1638C181.387 17.281 180.656 16.8396 179.617 16.8396C177.984 16.8396 177.168 18.1638 177.168 20.8123ZM194.734 26.9998V16.8044H192.848V14.3201H194.734V13.2419C194.734 11.8201 195.141 10.7185 195.953 9.93726C196.773 9.14819 197.918 8.75366 199.387 8.75366C199.855 8.75366 200.43 8.83179 201.109 8.98804L201.074 11.613C200.793 11.5427 200.449 11.5076 200.043 11.5076C198.77 11.5076 198.133 12.1052 198.133 13.3005V14.3201H200.652V16.8044H198.133V26.9998H194.734ZM201.883 20.5427C201.883 19.2849 202.125 18.1638 202.609 17.1794C203.094 16.1951 203.789 15.4333 204.695 14.8943C205.609 14.3552 206.668 14.0857 207.871 14.0857C209.582 14.0857 210.977 14.6091 212.055 15.656C213.141 16.7029 213.746 18.1248 213.871 19.9216L213.895 20.7888C213.895 22.7341 213.352 24.2966 212.266 25.4763C211.18 26.6482 209.723 27.2341 207.895 27.2341C206.066 27.2341 204.605 26.6482 203.512 25.4763C202.426 24.3044 201.883 22.7107 201.883 20.6951V20.5427ZM205.27 20.7888C205.27 21.9919 205.496 22.9138 205.949 23.5544C206.402 24.1873 207.051 24.5037 207.895 24.5037C208.715 24.5037 209.355 24.1912 209.816 23.5662C210.277 22.9333 210.508 21.9255 210.508 20.5427C210.508 19.363 210.277 18.449 209.816 17.8005C209.355 17.1521 208.707 16.8279 207.871 16.8279C207.043 16.8279 206.402 17.1521 205.949 17.8005C205.496 18.4412 205.27 19.4373 205.27 20.7888ZM223.105 17.4958C222.645 17.4333 222.238 17.4021 221.887 17.4021C220.605 17.4021 219.766 17.8357 219.367 18.7029V26.9998H215.98V14.3201H219.18L219.273 15.8318C219.953 14.6677 220.895 14.0857 222.098 14.0857C222.473 14.0857 222.824 14.1365 223.152 14.238L223.105 17.4958ZM234.777 11.2029V14.3201H236.945V16.8044H234.777V23.1326C234.777 23.6013 234.867 23.9373 235.047 24.1404C235.227 24.3435 235.57 24.4451 236.078 24.4451C236.453 24.4451 236.785 24.4177 237.074 24.363V26.9294C236.41 27.1326 235.727 27.2341 235.023 27.2341C232.648 27.2341 231.438 26.0349 231.391 23.6365V16.8044H229.539V14.3201H231.391V11.2029H234.777ZM242.137 15.7029C243.035 14.6248 244.164 14.0857 245.523 14.0857C248.273 14.0857 249.668 15.6833 249.707 18.8787V26.9998H246.32V18.9724C246.32 18.2458 246.164 17.7107 245.852 17.3669C245.539 17.0154 245.02 16.8396 244.293 16.8396C243.301 16.8396 242.582 17.2224 242.137 17.988V26.9998H238.75V8.99976H242.137V15.7029ZM255.836 26.9998H252.438V14.3201H255.836V26.9998ZM252.238 11.0388C252.238 10.531 252.406 10.113 252.742 9.78491C253.086 9.45679 253.551 9.29272 254.137 9.29272C254.715 9.29272 255.176 9.45679 255.52 9.78491C255.863 10.113 256.035 10.531 256.035 11.0388C256.035 11.5544 255.859 11.9763 255.508 12.3044C255.164 12.6326 254.707 12.7966 254.137 12.7966C253.566 12.7966 253.105 12.6326 252.754 12.3044C252.41 11.9763 252.238 11.5544 252.238 11.0388ZM265.504 23.4958C265.504 23.0818 265.297 22.7576 264.883 22.5232C264.477 22.281 263.82 22.0662 262.914 21.8787C259.898 21.2458 258.391 19.9646 258.391 18.0349C258.391 16.9099 258.855 15.9724 259.785 15.2224C260.723 14.4646 261.945 14.0857 263.453 14.0857C265.062 14.0857 266.348 14.4646 267.309 15.2224C268.277 15.9802 268.762 16.9646 268.762 18.1755H265.375C265.375 17.6912 265.219 17.2927 264.906 16.9802C264.594 16.6599 264.105 16.4998 263.441 16.4998C262.871 16.4998 262.43 16.6287 262.117 16.8865C261.805 17.1443 261.648 17.4724 261.648 17.8708C261.648 18.2458 261.824 18.5505 262.176 18.7849C262.535 19.0115 263.137 19.2107 263.98 19.3826C264.824 19.5466 265.535 19.7341 266.113 19.9451C267.902 20.6013 268.797 21.738 268.797 23.3552C268.797 24.5115 268.301 25.449 267.309 26.1677C266.316 26.8787 265.035 27.2341 263.465 27.2341C262.402 27.2341 261.457 27.0466 260.629 26.6716C259.809 26.2888 259.164 25.7693 258.695 25.113C258.227 24.449 257.992 23.7341 257.992 22.9685H261.203C261.234 23.5701 261.457 24.031 261.871 24.3513C262.285 24.6716 262.84 24.8318 263.535 24.8318C264.184 24.8318 264.672 24.7107 265 24.4685C265.336 24.2185 265.504 23.8943 265.504 23.4958ZM280.539 26.9998H277.141V14.3201H280.539V26.9998ZM276.941 11.0388C276.941 10.531 277.109 10.113 277.445 9.78491C277.789 9.45679 278.254 9.29272 278.84 9.29272C279.418 9.29272 279.879 9.45679 280.223 9.78491C280.566 10.113 280.738 10.531 280.738 11.0388C280.738 11.5544 280.562 11.9763 280.211 12.3044C279.867 12.6326 279.41 12.7966 278.84 12.7966C278.27 12.7966 277.809 12.6326 277.457 12.3044C277.113 11.9763 276.941 11.5544 276.941 11.0388ZM286.457 14.3201L286.562 15.7849C287.469 14.6521 288.684 14.0857 290.207 14.0857C291.551 14.0857 292.551 14.4802 293.207 15.2693C293.863 16.0583 294.199 17.238 294.215 18.8083V26.9998H290.828V18.8904C290.828 18.1716 290.672 17.6521 290.359 17.3318C290.047 17.0037 289.527 16.8396 288.801 16.8396C287.848 16.8396 287.133 17.2458 286.656 18.0583V26.9998H283.27V14.3201H286.457ZM300.367 26.9998H296.969V14.3201H300.367V26.9998ZM296.77 11.0388C296.77 10.531 296.938 10.113 297.273 9.78491C297.617 9.45679 298.082 9.29272 298.668 9.29272C299.246 9.29272 299.707 9.45679 300.051 9.78491C300.395 10.113 300.566 10.531 300.566 11.0388C300.566 11.5544 300.391 11.9763 300.039 12.3044C299.695 12.6326 299.238 12.7966 298.668 12.7966C298.098 12.7966 297.637 12.6326 297.285 12.3044C296.941 11.9763 296.77 11.5544 296.77 11.0388ZM307.223 11.2029V14.3201H309.391V16.8044H307.223V23.1326C307.223 23.6013 307.312 23.9373 307.492 24.1404C307.672 24.3435 308.016 24.4451 308.523 24.4451C308.898 24.4451 309.23 24.4177 309.52 24.363V26.9294C308.855 27.1326 308.172 27.2341 307.469 27.2341C305.094 27.2341 303.883 26.0349 303.836 23.6365V16.8044H301.984V14.3201H303.836V11.2029H307.223ZM314.852 26.9998H311.453V14.3201H314.852V26.9998ZM311.254 11.0388C311.254 10.531 311.422 10.113 311.758 9.78491C312.102 9.45679 312.566 9.29272 313.152 9.29272C313.73 9.29272 314.191 9.45679 314.535 9.78491C314.879 10.113 315.051 10.531 315.051 11.0388C315.051 11.5544 314.875 11.9763 314.523 12.3044C314.18 12.6326 313.723 12.7966 313.152 12.7966C312.582 12.7966 312.121 12.6326 311.77 12.3044C311.426 11.9763 311.254 11.5544 311.254 11.0388ZM325 26.9998C324.844 26.6951 324.73 26.3162 324.66 25.863C323.84 26.7771 322.773 27.2341 321.461 27.2341C320.219 27.2341 319.188 26.8748 318.367 26.156C317.555 25.4373 317.148 24.531 317.148 23.4373C317.148 22.0935 317.645 21.0623 318.637 20.3435C319.637 19.6248 321.078 19.2615 322.961 19.2537H324.52V18.5271C324.52 17.9412 324.367 17.4724 324.062 17.1208C323.766 16.7693 323.293 16.5935 322.645 16.5935C322.074 16.5935 321.625 16.7302 321.297 17.0037C320.977 17.2771 320.816 17.6521 320.816 18.1287H317.43C317.43 17.3943 317.656 16.7146 318.109 16.0896C318.562 15.4646 319.203 14.9763 320.031 14.6248C320.859 14.2654 321.789 14.0857 322.82 14.0857C324.383 14.0857 325.621 14.4802 326.535 15.2693C327.457 16.0505 327.918 17.1521 327.918 18.574V24.0701C327.926 25.2732 328.094 26.1833 328.422 26.8005V26.9998H325ZM322.199 24.6443C322.699 24.6443 323.16 24.5349 323.582 24.3162C324.004 24.0896 324.316 23.7888 324.52 23.4138V21.2341H323.254C321.559 21.2341 320.656 21.8201 320.547 22.9919L320.535 23.1912C320.535 23.613 320.684 23.9607 320.98 24.2341C321.277 24.5076 321.684 24.6443 322.199 24.6443ZM334.574 11.2029V14.3201H336.742V16.8044H334.574V23.1326C334.574 23.6013 334.664 23.9373 334.844 24.1404C335.023 24.3435 335.367 24.4451 335.875 24.4451C336.25 24.4451 336.582 24.4177 336.871 24.363V26.9294C336.207 27.1326 335.523 27.2341 334.82 27.2341C332.445 27.2341 331.234 26.0349 331.188 23.6365V16.8044H329.336V14.3201H331.188V11.2029H334.574ZM344.465 27.2341C342.605 27.2341 341.09 26.6638 339.918 25.5232C338.754 24.3826 338.172 22.863 338.172 20.9646V20.6365C338.172 19.363 338.418 18.2263 338.91 17.2263C339.402 16.2185 340.098 15.4451 340.996 14.906C341.902 14.3591 342.934 14.0857 344.09 14.0857C345.824 14.0857 347.188 14.6326 348.18 15.7263C349.18 16.8201 349.68 18.3708 349.68 20.3787V21.7615H341.605C341.715 22.5896 342.043 23.2537 342.59 23.7537C343.145 24.2537 343.844 24.5037 344.688 24.5037C345.992 24.5037 347.012 24.031 347.746 23.0857L349.41 24.949C348.902 25.6677 348.215 26.2302 347.348 26.6365C346.48 27.0349 345.52 27.2341 344.465 27.2341ZM344.078 16.8279C343.406 16.8279 342.859 17.0544 342.438 17.5076C342.023 17.9607 341.758 18.6091 341.641 19.4529H346.352V19.1833C346.336 18.4333 346.133 17.8552 345.742 17.449C345.352 17.0349 344.797 16.8279 344.078 16.8279Z" fill="#1D2130"/>
<path opacity="0.4" d="M29.3332 15.9997C29.3332 23.3637 23.3638 29.333 15.9998 29.333C8.63584 29.333 2.6665 23.3637 2.6665 15.9997C2.6665 8.63705 8.63584 2.66638 15.9998 2.66638C23.3638 2.66638 29.3332 8.63705 29.3332 15.9997Z" fill="#716FE7"/>
<path d="M21.1463 11.6063L18.9863 18.433C18.9063 18.713 18.6796 18.9397 18.3996 19.021L11.5996 21.153C11.1463 21.301 10.7063 20.8597 10.853 20.4063L12.9863 13.5663C13.0663 13.2863 13.293 13.073 13.573 12.9797L20.3996 10.8463C20.8663 10.6997 21.293 11.1397 21.1463 11.6063Z" fill="#716FE7"/>
</svg>
